<svg xmlns="http://www.w3.org/2000/svg" viewBox="0 0 170.16 170.16"><defs><style>.cls-1{fill:#009cde;}.cls-2{fill:#fff;}</style></defs><title>Recurso 17</title><g id="Capa_2" data-name="Capa 2"><g id="Capa_1-2" data-name="Capa 1"><circle class="cls-1" cx="85.08" cy="85.08" r="85.08" transform="translate(-13.82 153.62) rotate(-79.72)"/><path class="cls-2" d="M92.86,53.21c-2.27,0-3.07-.8-3.07-3.06V38.55a1.43,1.43,0,0,0-1.42-1.42H77.31a1.43,1.43,0,0,0-1.42,1.42v11.6c0,2.26-.8,3.06-3.07,3.06a7,7,0,0,0-6.95,6.95v56.77a7,7,0,0,0,6.95,6.95h20a7,7,0,0,0,7-6.95V60.16A7,7,0,0,0,92.86,53.21ZM87,40v2.28H78.73V40ZM92.86,121h-20a4.12,4.12,0,0,1-4.11-4.11v-2.61h6a1.42,1.42,0,1,0,0-2.84h-6v-2.89h6a1.43,1.43,0,0,0,0-2.85h-6v-2.89h6a1.42,1.42,0,0,0,0-2.84h-6v-2.9h6a1.42,1.42,0,0,0,0-2.84h-6V91.38h6a1.42,1.42,0,1,0,0-2.84h-6v-2.9h6a1.42,1.42,0,0,0,0-2.84h-6V79.9h6a1.42,1.42,0,0,0,0-2.84h-6V74.17h6a1.42,1.42,0,0,0,0-2.84h-6v-2.9h6a1.42,1.42,0,0,0,0-2.84h-6V60.16a4.12,4.12,0,0,1,4.11-4.11c3.81,0,5.91-2.09,5.91-5.9V45.09H87v5.06c0,3.81,2.1,5.9,5.91,5.9A4.12,4.12,0,0,1,97,60.16v5.43H90.76a1.42,1.42,0,0,0,0,2.84H97v2.9H90.76a1.42,1.42,0,0,0,0,2.84H97v2.89H90.76a1.42,1.42,0,0,0,0,2.84H97v2.9H90.76a1.42,1.42,0,0,0,0,2.84H97v2.9H90.76a1.42,1.42,0,0,0,0,2.84H97v2.89H90.76a1.42,1.42,0,0,0,0,2.84H97V100H90.76a1.42,1.42,0,0,0,0,2.84H97v2.89H90.76a1.43,1.43,0,0,0,0,2.85H97v2.89H90.76a1.42,1.42,0,0,0,0,2.84H97v2.61A4.12,4.12,0,0,1,92.86,121Z"/></g></g></svg>