<svg xmlns="http://www.w3.org/2000/svg" viewBox="0 0 169.51 169.51"><defs><style>.cls-1{fill:#009cde;}.cls-2{fill:#fff;}</style></defs><title>Recurso 18</title><g id="Capa_2" data-name="Capa 2"><g id="Capa_1-2" data-name="Capa 1"><circle class="cls-1" cx="84.75" cy="84.75" r="84.75" transform="translate(-35.11 84.75) rotate(-45)"/><path class="cls-2" d="M142.06,90.43c0-.2,0-.41-.09-.69,0-.09,0-.16-.05-.24a3.78,3.78,0,0,0-.1-.46,2.13,2.13,0,0,0-.14-.43,9.3,9.3,0,0,0-8.92-6.55h-8.14a33.23,33.23,0,0,0-1.17-27.72c-4.42-8.37-11.79-13-20.79-13h-.16C88.73,41.46,81,48.21,77.25,53,73.5,48.21,65.77,41.46,52,41.38c-9.11-.14-16.51,4.54-20.95,12.95C25.8,64.24,26.21,77.54,32,86c7.23,10.5,32.23,30.66,42.64,38.84l.45.35.25.16a6,6,0,0,0,1.5.64,1.14,1.14,0,0,0,.37.05,1.18,1.18,0,0,0,.37-.05,6,6,0,0,0,1.51-.65l.23-.15.36-.29c6.78-5.32,12.35-9.9,16.36-13.27v7.17a9.29,9.29,0,0,0,2.75,6.62,10.45,10.45,0,0,0,1.86,1.44,9.34,9.34,0,0,0,4.77,1.3h8.82a9.4,9.4,0,0,0,6.46-2.57,8.94,8.94,0,0,0,.67-.69,9.77,9.77,0,0,0,1.47-2.34,9.17,9.17,0,0,0,.8-3.76v-9.11h9.08a9.25,9.25,0,0,0,8.88-6.43,4.27,4.27,0,0,0,.22-.72,6.19,6.19,0,0,0,.13-.62,5.06,5.06,0,0,0,.06-.53,6.23,6.23,0,0,0,.08-1.06V91.41A6.19,6.19,0,0,0,142.06,90.43ZM78,122.65l-.27.21a3.16,3.16,0,0,1-.46.24,4.53,4.53,0,0,1-.44-.23l-.38-.29c-8-6.32-34.85-27.75-42.06-38.22-5.26-7.61-5.61-19.68-.82-28.7C37.48,48.22,44,44.08,52,44.21c13,.07,20.14,6.34,23.84,11.58a1.42,1.42,0,0,0,1.13.6,1.45,1.45,0,0,0,.3,0,3,3,0,0,0,.31,0,1.45,1.45,0,0,0,1.12-.6c3.7-5.24,10.83-11.51,23.83-11.58,8-.14,14.51,4,18.43,11.45a30.68,30.68,0,0,1,2.74,20V73a9.28,9.28,0,0,0-.74-3.63,1.09,1.09,0,0,0-.08-.15,10.2,10.2,0,0,0-.77-1.42l-.09-.11a8.68,8.68,0,0,0-1.09-1.3,9.3,9.3,0,0,0-6.63-2.75h-8.82A9.38,9.38,0,0,0,96.08,73v9.11H87a9.29,9.29,0,0,0-8.91,6.51,5.87,5.87,0,0,0-.23.85c0,.17-.07.32,0,.3a4.48,4.48,0,0,0-.11.72,7.7,7.7,0,0,0-.06,1v8.91a7.3,7.3,0,0,0,.06.94,4.63,4.63,0,0,0,.09.62c0,.15,0,.3.1.52a5.07,5.07,0,0,0,.18.7A9.32,9.32,0,0,0,87,109.66h7C90,113,84.57,117.47,78,122.65Zm61.32-22.32a5.35,5.35,0,0,1-.06.75,3.24,3.24,0,0,1-.06.4l-.06.34-.14.44a6.48,6.48,0,0,1-6.22,4.57h-10.5a1.41,1.41,0,0,0-1.41,1.41v10.53a6.46,6.46,0,0,1-.55,2.61,7,7,0,0,1-1,1.63c-.15.16-.3.32-.47.48a6.57,6.57,0,0,1-1.4,1,6.5,6.5,0,0,1-3.13.79h-8.82a6.45,6.45,0,0,1-3.3-.89,7,7,0,0,1-1.33-1,6.45,6.45,0,0,1-1.92-4.61V109a1.43,1.43,0,0,0-.19-1.54l-.11-.08a1.37,1.37,0,0,0-1.12-.59H87a6.51,6.51,0,0,1-6.24-4.61c0-.15-.08-.29-.11-.41s-.06-.29-.06-.3a1.43,1.43,0,0,0,0-.22,2.66,2.66,0,0,1,0-.34,4.4,4.4,0,0,1,0-.62V91.41a5.76,5.76,0,0,1,0-.69,2.89,2.89,0,0,1,0-.29,4.21,4.21,0,0,0,.09-.49,4.71,4.71,0,0,1,.14-.48A6.48,6.48,0,0,1,87,84.89H97.49a1.41,1.41,0,0,0,1.42-1.42V73a6.55,6.55,0,0,1,6.55-6.53h8.82a6.55,6.55,0,0,1,4.65,1.94,6.87,6.87,0,0,1,.79,1s0,0,0,.06a8.78,8.78,0,0,1,.57,1.05.54.54,0,0,0,0,.11,6.42,6.42,0,0,1,.47,2.41V83.47a1.38,1.38,0,0,0,.67,1.18s.06.07.11.09l.06,0,.09,0a1.32,1.32,0,0,0,.7.1h10.28A6.48,6.48,0,0,1,139,89.46s.08.26.1.3l0,.14c0,.14,0,.28.08.42s0,.26,0,.39v0a.59.59,0,0,0,0,.13,3,3,0,0,1,0,.53Z"/></g></g></svg>