<svg xmlns="http://www.w3.org/2000/svg" viewBox="0 0 170.16 170.16"><defs><style>.cls-1{fill:#009cde;}.cls-2{fill:#fff;}</style></defs><title>Recurso 15</title><g id="Capa_2" data-name="Capa 2"><g id="Capa_1-2" data-name="Capa 1"><circle class="cls-1" cx="85.08" cy="85.08" r="85.08" transform="translate(-13.82 153.62) rotate(-79.72)"/><path class="cls-2" d="M78.29,54.77a3.93,3.93,0,0,0-3.73,2.72H60.8l-5.64-5.3a3.93,3.93,0,1,0-3.25,1.72,3.77,3.77,0,0,0,.83-.09L59.26,60a1.39,1.39,0,0,0,1,.38H74.72a3.93,3.93,0,1,0,3.57-5.56ZM50.82,50a1.09,1.09,0,1,1,1.72.87.92.92,0,0,0-.25.15,1.22,1.22,0,0,1-.38.07A1.09,1.09,0,0,1,50.82,50Zm27.47,9.81a1.09,1.09,0,1,1,1.09-1.09A1.09,1.09,0,0,1,78.29,59.79Z"/><path class="cls-2" d="M117.85,52a3.93,3.93,0,1,0-3.94-3.93A3.94,3.94,0,0,0,117.85,52Zm0-5a1.09,1.09,0,1,1-1.1,1.09A1.09,1.09,0,0,1,117.85,47Z"/><path class="cls-2" d="M119.53,107.08V61.57a3.92,3.92,0,1,0-2.84-.07v45.65a3.95,3.95,0,1,0,2.84-.07Zm-1.31-50.29a1.09,1.09,0,1,1-1.1,1.09A1.09,1.09,0,0,1,118.22,56.79Zm0,55.08a1.1,1.1,0,1,1,1.09-1.1A1.1,1.1,0,0,1,118.22,111.87Z"/><path class="cls-2" d="M108.43,52a3.93,3.93,0,1,0-3.94-3.93A3.94,3.94,0,0,0,108.43,52Zm0-5a1.09,1.09,0,1,1-1.1,1.09A1.09,1.09,0,0,1,108.43,47Z"/><path class="cls-2" d="M78.29,65.13a3.93,3.93,0,0,0-3.74,2.75H55.72a4,4,0,1,0-.39,2.84h19.4a3.93,3.93,0,1,0,3.56-5.59ZM51.91,69.91a1.09,1.09,0,1,1,0-2.18,1.08,1.08,0,0,1,1.07,1,1.37,1.37,0,0,0-.15.61s0,0,0,.06A1.09,1.09,0,0,1,51.91,69.91Zm26.38.24a1.09,1.09,0,1,1,1.09-1.09A1.09,1.09,0,0,1,78.29,70.15Z"/><path class="cls-2" d="M78.29,75.49a3.91,3.91,0,0,0-3.74,2.77H62.4a3.9,3.9,0,1,0-.08,2.84H74.74a3.93,3.93,0,1,0,3.55-5.61ZM58.71,80.64a1.09,1.09,0,1,1,1.09-1.09A1.09,1.09,0,0,1,58.71,80.64Zm19.58-.13a1.09,1.09,0,1,1,1.09-1.09A1.09,1.09,0,0,1,78.29,80.51Z"/><path class="cls-2" d="M78.29,85.61a3.93,3.93,0,0,0-3.82,3H63.68a1.4,1.4,0,0,0-.92.35l-10,8.58a1.43,1.43,0,0,0-.49,1.08v5.27a3.92,3.92,0,1,0,2.84,0V99.3l9.06-7.82H74.88a3.93,3.93,0,1,0,3.41-5.87Zm-24.6,23.07a1.09,1.09,0,0,1-.1-2.17.58.58,0,0,0,.14,0l.1,0a1.08,1.08,0,0,1,1,1.07A1.09,1.09,0,0,1,53.69,108.68Zm24.6-18.05a1.09,1.09,0,0,1-.85-.42.66.66,0,0,0,0-.15,1.4,1.4,0,0,0-.23-.73,1.07,1.07,0,0,1,1.05-.88,1.09,1.09,0,0,1,0,2.18Z"/><path class="cls-2" d="M78.37,96.45a3.77,3.77,0,0,0-2.8,1.09,3.82,3.82,0,0,0-1,1.49H71.46a1.45,1.45,0,0,0-1,.42c-.13.14-12.15,12.37-15.49,15.72A4,4,0,0,0,53.8,115a3.93,3.93,0,1,0,3.93,3.93,3.85,3.85,0,0,0-.55-2c3.26-3.27,12.72-12.89,14.87-15.08h2.6a4,4,0,0,0,3.55,2.45h.08a4,4,0,0,0,3.94-3.85,3.94,3.94,0,0,0-3.85-4ZM53.8,120a1.09,1.09,0,1,1,1.09-1.09A1.09,1.09,0,0,1,53.8,120Zm24.46-18.52a1.08,1.08,0,0,1-.89-.54,1.34,1.34,0,0,0,.1-.49,1.37,1.37,0,0,0-.13-.58,1.07,1.07,0,0,1,.19-.28,1.09,1.09,0,0,1,.75-.3h0a1.11,1.11,0,0,1,1.07,1.12A1.15,1.15,0,0,1,78.26,101.48Z"/><path class="cls-2" d="M107.21,54.72H93a5.91,5.91,0,0,0-5.63,6.15V93.82A5.93,5.93,0,0,0,92.8,100V110.6a4,4,0,1,0,2.85,0V100h8.58V110.6a4,4,0,1,0,2.84,0V100h.14a5.91,5.91,0,0,0,5.63-6.14V60.87A5.92,5.92,0,0,0,107.21,54.72Zm-1.48,60.61a1.1,1.1,0,1,1,1.09-1.1A1.09,1.09,0,0,1,105.73,115.33Zm-11.42,0a1.1,1.1,0,1,1,1.09-1.1A1.09,1.09,0,0,1,94.31,115.33ZM110,93.82a3.08,3.08,0,0,1-2.79,3.3h-.14V86.43a1.42,1.42,0,1,0-2.84,0V97.12H95.65V86.43a1.43,1.43,0,0,0-2.85,0V97.1a3.1,3.1,0,0,1-2.63-3.28V60.87A3.09,3.09,0,0,1,93,57.56h14.25A3.09,3.09,0,0,1,110,60.87Z"/></g></g></svg>