<svg xmlns="http://www.w3.org/2000/svg" viewBox="0 0 169.51 169.51"><defs><style>.cls-1{fill:#009cde;}.cls-2{fill:#fff;}</style></defs><title>Recurso 20</title><g id="Capa_2" data-name="Capa 2"><g id="Capa_1-2" data-name="Capa 1"><circle class="cls-1" cx="84.75" cy="84.75" r="84.75" transform="translate(-9.72 158.52) rotate(-82.98)"/><path class="cls-2" d="M146.24,91.74h-123a1.42,1.42,0,1,0,0,2.83H83.94v18.66H25.65a1.42,1.42,0,0,0,0,2.83H141.46a1.42,1.42,0,1,0,0-2.83H86.77V94.57h59.47a1.42,1.42,0,0,0,0-2.83Z"/><path class="cls-2" d="M25.65,87.41h119.4a1.42,1.42,0,0,0,1.27-2L138.1,68.11v0a1.38,1.38,0,0,0-.53-1.08L122.45,35.24a1.44,1.44,0,0,0-1.28-.81H50.73a1.41,1.41,0,0,0-1.27.78L24.39,85.36a1.41,1.41,0,0,0,1.26,2ZM36.9,66.67l6.94-13.89h8.81a3.37,3.37,0,0,0,.54,1.07L49,64.81a3.37,3.37,0,0,0-2.67,1.86ZM74.06,37.26,71.12,48.42A3.43,3.43,0,0,0,68.31,50H58.72a3.2,3.2,0,0,0-.71-.76l4.58-11.93Zm9.88,0V48.72A3.43,3.43,0,0,0,82.48,50H74a2.51,2.51,0,0,0-.25-.32L77,37.26Zm11.11,0,3.5,11.31A3.44,3.44,0,0,0,96.66,50h-8.5a3.5,3.5,0,0,0-1.39-1.2V37.26Zm14.44,0,5.16,12.06a3.66,3.66,0,0,0-.55.63H102.33a3.4,3.4,0,0,0-.59-.66L98,37.26Zm17.86,15.52a1.5,1.5,0,0,0,.29-.06l6.64,14H127.6a3.39,3.39,0,0,0-3-1.9l-.2,0-4.71-11a3.25,3.25,0,0,0,.51-1Zm-14.69,31.8-4.31-13.94a3.54,3.54,0,0,0,.81-1.14h12.28a3.39,3.39,0,0,0,2.73,2l5.6,13.06ZM52.38,66.67a3.57,3.57,0,0,0-.71-1l4-10.51.18,0a3.37,3.37,0,0,0,3.23-2.43h8.79a3.36,3.36,0,0,0,1.54,2L66.75,65a3.33,3.33,0,0,0-1.9,1.69Zm29.7-13.89a3.4,3.4,0,0,0,1.86,2.13V65.07a3.38,3.38,0,0,0-1.65,1.6H70.91a3.3,3.3,0,0,0-1.31-1.41L72.31,55a3.37,3.37,0,0,0,2.08-2.21Zm14.17,0a3.31,3.31,0,0,0,4.3,2.24l3.28,10.59a3.18,3.18,0,0,0-.83,1.06H88.35a3.39,3.39,0,0,0-1.58-1.57V54.88a3.41,3.41,0,0,0,1.79-2.1Zm17.45,0a3.39,3.39,0,0,0,3.24,2.43l.23,0,4.69,10.94a4.86,4.86,0,0,0-.33.54H109.07a3.41,3.41,0,0,0-2.52-1.85l-3.73-12ZM67.94,71.56A3.41,3.41,0,0,0,71,69.5H82.2a3.4,3.4,0,0,0,1.74,1.76V84.58H64.5Zm18.83-.33a3.43,3.43,0,0,0,1.67-1.73h14.47a3.39,3.39,0,0,0,2.75,2l4,13.06H86.77Zm-37.34.32a3.39,3.39,0,0,0,3-2H64.76a3.37,3.37,0,0,0,.56.88l-3.74,14.2H44.43Zm83.42,13-6-13.94a3.32,3.32,0,0,0,.82-1.14h7.94l7.18,15.08ZM126.32,50h-6.55a3.41,3.41,0,0,0-2.4-1.49l-4.8-11.2h7.7ZM51.6,37.26h8L55.25,48.48A3.43,3.43,0,0,0,53.05,50H45.26ZM35.48,69.5H46.22a3.35,3.35,0,0,0,.61.92L41.4,84.58H27.94Z"/></g></g></svg>