<svg xmlns="http://www.w3.org/2000/svg" viewBox="0 0 170.16 170.16"><defs><style>.cls-1{fill:#009cde;}.cls-2{fill:#fff;}</style></defs><title>Recurso 16</title><g id="Capa_2" data-name="Capa 2"><g id="Capa_1-2" data-name="Capa 1"><circle class="cls-1" cx="85.08" cy="85.08" r="85.08" transform="translate(-35.24 85.08) rotate(-45)"/><path class="cls-2" d="M98.32,96.29a5,5,0,0,0,5-5v-4a5,5,0,0,0-5-5H74.24a5,5,0,0,0-5,5v4a5,5,0,0,0,5,5ZM97,86.25h3.65l-4.82,7H92.14Zm-10.32,0h3.65l-4.81,7H81.82Zm-10.32,0H80l-4.81,7H71.5Z"/><path class="cls-2" d="M101.75,100.8a1.42,1.42,0,0,0-1.42-1.42H72.23a1.42,1.42,0,0,0,0,2.84h28.1A1.41,1.41,0,0,0,101.75,100.8Z"/><path class="cls-2" d="M72.89,66.35A2.87,2.87,0,1,0,70,63.48,2.88,2.88,0,0,0,72.89,66.35Z"/><path class="cls-2" d="M81.71,66.35a2.87,2.87,0,1,0-2.87-2.87A2.88,2.88,0,0,0,81.71,66.35Z"/><path class="cls-2" d="M90.53,66.35a2.87,2.87,0,1,0-2.87-2.87A2.88,2.88,0,0,0,90.53,66.35Z"/><path class="cls-2" d="M99.36,66.35a2.87,2.87,0,1,0-2.88-2.87A2.88,2.88,0,0,0,99.36,66.35Z"/><path class="cls-2" d="M128.09,119.22l-1.24-.41c0-.14,0-.27,0-.39l1.22-.86a3.11,3.11,0,0,0,1-3.61l-.53-1.22a2.89,2.89,0,0,0-2.73-1.67,2.61,2.61,0,0,0-.69.09l-1.3.34-.37-.44.56-1.39a3.11,3.11,0,0,0-1.08-3.61l-1-.69a2.94,2.94,0,0,0-1.54-.41,3,3,0,0,0-2.18,1l-.93,1-.67-.2-.27-1.42a3.07,3.07,0,0,0-2-2.3V96.52a5.27,5.27,0,0,0,4-5V86.67a5.26,5.26,0,0,0-4-5V69.34A18,18,0,0,0,96.4,51.21H76.11A18,18,0,0,0,58.26,69.34V81.66a5.28,5.28,0,0,0-4,5v4.85a5.26,5.26,0,0,0,4,5v16.1c0,7.56,5.88,13.71,13.1,13.71H97.53a1.36,1.36,0,0,0,.35-.07,2.88,2.88,0,0,0,1.12.27l1.51,0,0,.1-.85,1.08a3.06,3.06,0,0,0,.1,3.81l1,1.12a3.12,3.12,0,0,0,2.16.86,3,3,0,0,0,1.52-.42l1.18-.72-.13,1.3a3.08,3.08,0,0,0,2.11,3.17l1.53.42a3,3,0,0,0,.59.06h0a3,3,0,0,0,2.69-1.68l.55-1.15.57,1.13a3,3,0,0,0,2.69,1.65,2.93,2.93,0,0,0,.76-.1l1.5-.44a3.07,3.07,0,0,0,2-3.18l-.15-1.31,1.19.71a3.4,3.4,0,0,0,1.53.4,3.07,3.07,0,0,0,2.19-1l1-1.13a3,3,0,0,0,0-3.77l-.86-1.07,1.56-.16a3.08,3.08,0,0,0,2.83-2.47l.22-1.41A3,3,0,0,0,128.09,119.22ZM115.47,86.67v4.85A2.46,2.46,0,0,1,113,93.86v0s-.09,0-.14,0a2.65,2.65,0,0,1-2.6-2.34V86.67a2.65,2.65,0,0,1,2.6-2.34H113A2.47,2.47,0,0,1,115.47,86.67ZM57.09,91.52V86.67a2.43,2.43,0,0,1,2.47-2.34h0a.27.27,0,0,1,.09,0h0l.25,0a2.71,2.71,0,0,1,2.31,2,2.2,2.2,0,0,1,0,.36v4.85a2.64,2.64,0,0,1-2.6,2.34h-.14A2.45,2.45,0,0,1,57.09,91.52Zm4,21.08V96.5c.16,0,.3-.11.45-.16l.3-.11a6.25,6.25,0,0,0,.85-.45l.06,0a5.85,5.85,0,0,0,.69-.54l.21-.22a6.4,6.4,0,0,0,.42-.49l.2-.28a5.54,5.54,0,0,0,.3-.53l.15-.31a5.27,5.27,0,0,0,.2-.6c0-.1.06-.2.08-.3a4.43,4.43,0,0,0,.1-.9s0,0,0,0V86.67s0,0,0-.07a4.93,4.93,0,0,0-.1-.87c0-.11-.06-.21-.09-.32a3.93,3.93,0,0,0-.19-.58c0-.11-.1-.21-.16-.32a3.2,3.2,0,0,0-.29-.51l-.2-.3a6.27,6.27,0,0,0-.42-.48L63.45,83a5.73,5.73,0,0,0-.73-.57s0,0,0,0a5.46,5.46,0,0,0-.86-.46l-.27-.09a3.75,3.75,0,0,0-.47-.17V69.34a15.17,15.17,0,0,1,15-15.29H96.4a15.2,15.2,0,0,1,15.06,15.29V81.68a5.42,5.42,0,0,0-4,5v4.85a5.4,5.4,0,0,0,4,5V103a3.08,3.08,0,0,0-2.06,2.36l-.24,1.42-.67.21-.94-1a3.12,3.12,0,0,0-2.2-.93,3,3,0,0,0-1.58.47l-1,.71a3.11,3.11,0,0,0-1,3.59l.58,1.38-.36.45-1.31-.32a2.64,2.64,0,0,0-.7-.08A3,3,0,0,0,97.27,113l-.51,1.23a3.1,3.1,0,0,0,1.13,3.54l1.23.84c0,.12,0,.25,0,.39l-1.24.42a3.05,3.05,0,0,0-2,3.28l.14.73H71.36C65.7,123.47,61.1,118.59,61.1,112.6Zm66,10.69a.25.25,0,0,1-.17.15l-2.06.09a2,2,0,0,0-1.67,1.15l-.48,1a1.94,1.94,0,0,0,.17,2.08l1.27,1.55-.09.27-1,.94-1.79-1.06a2,2,0,0,0-1-.23h0a1.89,1.89,0,0,0-1,.31l-.8.5a2,2,0,0,0-.93,1.85l.18,2.16-1.52.31-.92-1.81a2,2,0,0,0-1.8-1h0l-.61,0a1,1,0,0,0-.3,0,2,2,0,0,0-1.69,1L110,134.4a.18.18,0,0,1-.16.09L108.4,134l.2-2a1.94,1.94,0,0,0-.94-1.8l-.8-.49a2,2,0,0,0-1.08-.31,1.9,1.9,0,0,0-1,.26l-1.93,1.07-.92-1.19,1.23-1.56a1.9,1.9,0,0,0,.18-2l-.5-1a2,2,0,0,0-1.72-1.18l-2,0s-.16-.08-.16-.12l-.15-1.4,2.19-.76a1.44,1.44,0,0,0,.9-1.29,10.31,10.31,0,0,1,.15-1.57,2.05,2.05,0,0,0-.81-1.9l-1.69-1.16a.28.28,0,0,1-.09-.2l.58-1.16,2,.5a2,2,0,0,0,1.82-.72l1-1.23a2,2,0,0,0,.34-2l-.79-1.88a.4.4,0,0,1,0-.2l1.06-.6,1.35,1.44a1.93,1.93,0,0,0,1.39.59,2.16,2.16,0,0,0,.61-.1l1.62-.51a2,2,0,0,0,1.41-1.52l.34-2-1.4-.24,1.58.09h.93l.2.15.38,2a2,2,0,0,0,1.38,1.49l1.77.52a2.51,2.51,0,0,0,.5.07,2,2,0,0,0,1.39-.6l1.46-1.52.92.6a.3.3,0,0,1,.06.22l-.76,1.91a2,2,0,0,0,.35,2l1,1.2a2,2,0,0,0,2,.71l2-.47.46,1.08a.26.26,0,0,1-.06.23l-1.68,1.21a2,2,0,0,0-.77,1.91c0,.13.14.84.18,1.56a1.4,1.4,0,0,0,.86,1.24,1.92,1.92,0,0,0,.37.14l2,.73Z"/><path class="cls-2" d="M112.92,112.82a7.34,7.34,0,0,0-5.22,2.23,7.48,7.48,0,0,0,.08,10.54,7.32,7.32,0,0,0,5.19,2.15H113a7.46,7.46,0,0,0-.12-14.92ZM113,124.9a4.39,4.39,0,0,1-3.23-1.33,4.64,4.64,0,0,1,0-6.53,4.48,4.48,0,0,1,3.21-1.38h0a4.62,4.62,0,0,1,0,9.24Z"/></g></g></svg>