<svg xmlns="http://www.w3.org/2000/svg" viewBox="0 0 170.16 170.16"><defs><style>.cls-1{fill:#009cde;}.cls-2{fill:#fff;}</style></defs><title>Recurso 13</title><g id="Capa_2" data-name="Capa 2"><g id="Capa_1-2" data-name="Capa 1"><circle class="cls-1" cx="85.08" cy="85.08" r="85.08" transform="translate(-17.27 148.34) rotate(-76.72)"/><path class="cls-2" d="M80.54,53.5a1.42,1.42,0,0,0-1.42,1.42v59.5a1.42,1.42,0,1,0,2.84,0V54.92A1.41,1.41,0,0,0,80.54,53.5Z"/><path class="cls-2" d="M74.62,92A1.43,1.43,0,0,0,76,90.62V66.82a1.42,1.42,0,0,0-1.42-1.42H56.84a1.41,1.41,0,0,0-1.42,1.42v23.8A1.42,1.42,0,0,0,56.84,92ZM58.26,89.2V86.09H73.19V89.2Zm14.93-21v15H58.26v-15Z"/><path class="cls-2" d="M61.28,74.19h3a1.42,1.42,0,0,0,0-2.84h-3a1.42,1.42,0,1,0,0,2.84Z"/><path class="cls-2" d="M67.21,74.19h3a1.42,1.42,0,0,0,0-2.84h-3a1.42,1.42,0,1,0,0,2.84Z"/><path class="cls-2" d="M85.05,60.87v47.6a1.42,1.42,0,0,0,2.84,0V60.87a1.42,1.42,0,0,0-2.84,0Z"/><path class="cls-2" d="M119.06,37.13H50.91a1.43,1.43,0,0,0-1.42,1.42v92.23a1.42,1.42,0,0,0,1.42,1.42h57.78a1.42,1.42,0,1,0,0-2.84H82v-12a1.42,1.42,0,1,0-2.84,0v6H52.33V40H79.12v12a1.42,1.42,0,0,0,2.84,0V40h35.68v89.39h-3.09V43a1.42,1.42,0,0,0-2.84,0v87.76a1.42,1.42,0,0,0,1.42,1.42h5.93a1.41,1.41,0,0,0,1.42-1.42V38.55A1.42,1.42,0,0,0,119.06,37.13ZM52.39,126.25H79.12v3.11H52.33v-3.12Z"/><path class="cls-2" d="M53.94,96.57A1.42,1.42,0,0,0,55.36,98H76.1a1.42,1.42,0,1,0,0-2.84H55.36A1.41,1.41,0,0,0,53.94,96.57Z"/></g></g></svg>