<svg xmlns="http://www.w3.org/2000/svg" viewBox="0 0 169.51 169.51"><defs><style>.cls-1{fill:#009cde;}.cls-2{fill:#fff;}</style></defs><title>Recurso 12</title><g id="Capa_2" data-name="Capa 2"><g id="Capa_1-2" data-name="Capa 1"><circle class="cls-1" cx="84.75" cy="84.75" r="84.75" transform="translate(-12.48 14.67) rotate(-9.22)"/><path class="cls-2" d="M55.1,91.28a9.86,9.86,0,0,0-7-3h0a10,10,0,0,0-10,9.82,10.38,10.38,0,0,0,2.85,7.26,9.76,9.76,0,0,0,7,3.11H48A10.22,10.22,0,0,0,58,98.44,10,10,0,0,0,55.1,91.28ZM48,105.68a7,7,0,0,1-5-2.23,7.52,7.52,0,0,1-2.07-5.28,7.13,7.13,0,0,1,7.14-7h0a7,7,0,0,1,5,2.12,7.15,7.15,0,0,1,2.07,5.13A7.32,7.32,0,0,1,48,105.68Z"/><path class="cls-2" d="M48.13,93.58a4.91,4.91,0,0,0-3.45,1.36,4.85,4.85,0,0,0-1.38,3.49h0a4.82,4.82,0,0,0,1.47,3.48,4.71,4.71,0,0,0,3.3,1.31h.16a4.91,4.91,0,0,0,4.68-4.9A4.83,4.83,0,0,0,48.13,93.58Zm0,6.81a1.89,1.89,0,0,1-1.41-.52,2.06,2.06,0,0,1-.6-1.46,2,2,0,0,1,.55-1.47,2.13,2.13,0,0,1,1.43-.53,2,2,0,0,1,2,2A2.06,2.06,0,0,1,48.14,100.39Z"/><path class="cls-2" d="M133.49,91.19a9.71,9.71,0,0,0-7.06-2.87,10,10,0,0,0-9.8,10.06,10.32,10.32,0,0,0,3.08,7.29,9.81,9.81,0,0,0,6.91,2.88h.13a10.18,10.18,0,0,0,9.71-10.23A10,10,0,0,0,133.49,91.19Zm-6.78,14.53a7.28,7.28,0,0,1-5-2.07,7.45,7.45,0,0,1-2.24-5.27,7.13,7.13,0,0,1,7-7.23h0a7.1,7.1,0,0,1,5,2,7.22,7.22,0,0,1,2.13,5.13A7.4,7.4,0,0,1,126.71,105.72Z"/><path class="cls-2" d="M126.66,93.58h0a4.82,4.82,0,0,0-.07,9.64h.06a4.82,4.82,0,1,0,0-9.64Zm1.36,6.2a2.1,2.1,0,0,1-1.41.61,2,2,0,0,1-1.4-3.41,2,2,0,0,1,1.44-.57h0a2,2,0,0,1,2,1.94A2,2,0,0,1,128,99.78Z"/><path class="cls-2" d="M85.59,62.82A54.24,54.24,0,0,0,65,67.26a5,5,0,0,0-.65.33c-5.16,3-12.85,9.48-13.18,9.75l0,0c-1.1,1-1.49,2-1.18,3,.49,1.53,2.39,1.87,3,1.94H84.35a5.8,5.8,0,0,0,4.38-1.51,3.51,3.51,0,0,0,1-2.38c0-.44.41-10.81.41-12.41C90.12,63.91,87.73,63,85.59,62.82Zm1.29,15.64c0,.5-.69,1.08-2.53,1.08H53.07l-.12,0,0,0c.54-.45,8-6.63,12.77-9.46l.46-.21a50.9,50.9,0,0,1,19.26-4.16,6.53,6.53,0,0,1,1.81.42C87.29,67.62,86.88,78.26,86.88,78.46Z"/><path class="cls-2" d="M121.14,64.51a6.76,6.76,0,0,0-.66-.33c-2.2-.91-16.9-1.37-24.73-1.35a3.42,3.42,0,0,0-3.31,3.24c0,1.23-.43,8.56-.66,12.26a3.55,3.55,0,0,0,1,2.52,5.77,5.77,0,0,0,4.39,1.52h31.11A3.49,3.49,0,0,0,131.15,81a3.09,3.09,0,0,0-.07-3.14C130.76,77.1,126.51,67.67,121.14,64.51Zm7.12,15H97.15c-1.85,0-2.52-.58-2.54-1s.66-10.82.66-12.44c0-.26.71-.42.64-.42,10.8,0,22.14.64,23.47,1.14l.34.16c4.66,2.75,8.74,12,8.78,12l0,.06c.1.21.14.35.18.4A1.34,1.34,0,0,1,128.26,79.54Z"/><path class="cls-2" d="M150.52,89.66c-.37-1-.65-2.11-.93-3.17-.91-3.42-1.85-7-5.24-9.79a98.57,98.57,0,0,1-8.94-8.88c-1.17-1.26-2.34-2.53-3.53-3.77a16.1,16.1,0,0,0-9.38-4.62,150.61,150.61,0,0,0-31.63-1.86,97.87,97.87,0,0,0-20.31,2.75c-8.32,2.12-15.34,6.9-21.81,11.61-2.53,1.85-11.51,5.82-17.44,8.44-3,1.33-5.4,2.38-6.41,2.91A11.73,11.73,0,0,0,19,89.6a3.65,3.65,0,0,0-.76,2.21v2.61a1.36,1.36,0,0,0,0,.2c0,.46.05.92.11,1.4.09.73.16,1.47.19,2.21.19,4.34.86,5.72,5.16,7.13a45.76,45.76,0,0,0,11.62,2.14,3.6,3.6,0,0,0,3.46-4.9C36.6,96.78,37.6,92.35,41.9,89.07a10.45,10.45,0,0,1,13.64.64,11.21,11.21,0,0,1,2.18,13.11,3.29,3.29,0,0,0,2.94,4.72v0c7.44.08,15,.16,22.54.16,11.18,0,22.44-.17,33.58-.76a1.41,1.41,0,0,0,1.1-2.2c-3.92-5.82-2.32-11.58,1-14.71a10.67,10.67,0,0,1,13.32-1.18c4.85,3.23,5.72,7.86,2.92,15.47a1.42,1.42,0,0,0,1.18,1.9c4.19.44,8.8.2,11.26-4.93a2.48,2.48,0,0,1,.49-.58A9.89,9.89,0,0,0,150.52,89.66ZM21.92,91H27a.38.38,0,0,1,.37.37v3.5a.38.38,0,0,1-.37.37H21.92a.82.82,0,0,1-.78-.64c0-.18,0-.37,0-.55V94a10.34,10.34,0,0,1,.38-2.85A.81.81,0,0,1,21.92,91Zm124.13,7.7a5.19,5.19,0,0,0-1.05,1.37c-1.35,2.84-3.56,3.58-6.63,3.47,2.45-7.87,1-13.32-4.61-17a13.57,13.57,0,0,0-19.44,17.74c-17.81.85-35.23.67-53.63.48h0a.43.43,0,0,1-.4-.22.45.45,0,0,1,0-.45,14,14,0,0,0-2.8-16.4A13.29,13.29,0,0,0,48.38,84a13.55,13.55,0,0,0-8.2,2.82c-5.28,4-6.66,9.84-4,16.8a.74.74,0,0,1-.09.73.75.75,0,0,1-.63.32,42.73,42.73,0,0,1-10.84-2c-2.91-1-3.06-1.17-3.21-4.56,0,0,0-.07,0-.1a4.23,4.23,0,0,0,.5,0H27a3.21,3.21,0,0,0,3.2-3.2v-3.5a3.2,3.2,0,0,0-3.2-3.2H23.15a10.23,10.23,0,0,1,3.06-2.37c.93-.48,3.39-1.57,6.24-2.83,6.41-2.83,15.19-6.71,18-8.74,6.51-4.74,13-9.16,20.84-11.16A95,95,0,0,1,91,60.4a147.61,147.61,0,0,1,31,1.82A13.4,13.4,0,0,1,129.84,66c1.18,1.23,2.33,2.48,3.49,3.73a99.36,99.36,0,0,0,9.21,9.14c2.69,2.24,3.48,5.21,4.32,8.34.3,1.13.6,2.26,1,3.37A7.05,7.05,0,0,1,146.05,98.69Z"/></g></g></svg>