<svg xmlns="http://www.w3.org/2000/svg" viewBox="0 0 170.16 170.16"><defs><style>.cls-1{fill:#009cde;}.cls-2{fill:#fff;}</style></defs><title>Recurso 14</title><g id="Capa_2" data-name="Capa 2"><g id="Capa_1-2" data-name="Capa 1"><circle class="cls-1" cx="85.08" cy="85.08" r="85.08" transform="translate(-35.24 85.08) rotate(-45)"/><path class="cls-2" d="M122.84,101.09l-.78-1.07c-.73-1-6.44-7-10.46-7.64a3.68,3.68,0,0,0-2.65.52l-4.09,2A100.74,100.74,0,0,0,92.13,71.76,86.91,86.91,0,0,0,67.35,49c-4.3-2.6-14.73-8.26-18.76-4.72-5.75,5,1,33.52,14.76,52.42a98.94,98.94,0,0,0,17.64,19l-3.12,4.52c-3.52,3.92,3.35,15.16,3.43,15.26l.79,1.09a3,3,0,0,0,2.32,1.39,2.53,2.53,0,0,0,.84-.15c1.7-.64,1.73-2.38,1.75-3.68a11.23,11.23,0,0,1,.16-2.2l6.31-5.53,1.88,2.6a6.35,6.35,0,0,0,5.14,2.7,6.2,6.2,0,0,0,4.11-1.58l.08-.07a3.7,3.7,0,0,0,2.88,1.46,3.58,3.58,0,0,0,.49,0,5.23,5.23,0,0,0,2.77-1.4,5.94,5.94,0,0,0,1.81-2.56,4.34,4.34,0,0,0-.64-3.88l.16-.14a7.44,7.44,0,0,0,1-9.78l-2-2.83,6.38-5.62a5.32,5.32,0,0,1,1.93.25c1.07.25,2.86.66,3.83-1.06A2.93,2.93,0,0,0,122.84,101.09ZM50.46,46.4c1.41-1.24,7.29.1,15.43,5A84.83,84.83,0,0,1,83.38,65.63L59.07,84.22C50.22,67,47.71,48.81,50.46,46.4ZM65.65,95a79.5,79.5,0,0,1-5.23-8.25l24.87-19c1.54,1.76,3.07,3.65,4.54,5.68a97.63,97.63,0,0,1,12.51,23.08,1.38,1.38,0,0,0,0,1.28,1.36,1.36,0,0,0,.72.66,42.38,42.38,0,0,1,2.58,13.86,1.7,1.7,0,0,0,0,.45,16.88,16.88,0,0,1-.26,2.45l-5.41-6.78a4.15,4.15,0,0,0-2.9-1.75,3.63,3.63,0,0,0-2.82.88,4.47,4.47,0,0,0-.52,5.86l5.12,7.75c-3.94,0-9-2.43-14.5-6.55a1.36,1.36,0,0,0-.47-.6,1.41,1.41,0,0,0-.61-.22A96.53,96.53,0,0,1,65.65,95Zm19.64,34.73c-1,.87-1.1,2.52-1.13,4.33,0,.14,0,.29,0,.45l-.55-.75c-1.4-1.92-5-10.26-3.6-11.71a1.39,1.39,0,0,0,.15-.19l3.09-4.48a40.45,40.45,0,0,0,9.83,5.49,1.69,1.69,0,0,0-.28.12,1.43,1.43,0,0,0-.42.53Zm12.36-2.46-2-2.81.79-.69a14,14,0,0,0,2.44.23,11,11,0,0,0,1.74-.14l2.49,3.77-.34.29A3.45,3.45,0,0,1,97.65,127.28Zm12.27-.69a3.16,3.16,0,0,1-1,1.3,2.59,2.59,0,0,1-1.28.72h-.11a.85.85,0,0,1-.73-.44l-.23-.35a1.39,1.39,0,0,0-.33-1.11,1.35,1.35,0,0,0-.67-.41l-2.78-4.21a1.24,1.24,0,0,0,0-.27,1.4,1.4,0,0,0-.71-.85L96,111.8a1.67,1.67,0,0,1,.07-2.1.74.74,0,0,1,.52-.2h.11a1.44,1.44,0,0,1,1,.65l6.68,8.39a1.4,1.4,0,0,0,.81,1.3,1,1,0,0,0,.29.08l2.77,3.48a1.4,1.4,0,0,0,.26,1.39,1.41,1.41,0,0,0,1.06.49.8.8,0,0,0,.15,0A1.44,1.44,0,0,1,109.92,126.59Zm1-11.25a4.6,4.6,0,0,1-.59,6l-.06,0L107.5,118a17.27,17.27,0,0,0,.91-4.72l.57-.5Zm9.2-12.64c-1.25-.29-3.13-.73-4.29.29l-6.61,5.8a1.29,1.29,0,0,0-.86.1,50.72,50.72,0,0,0-2.5-11.25l4.51-2.24.22-.14a1,1,0,0,1,.64-.07c2.67.41,7.73,5.33,8.58,6.5l.78,1.07,0,0Z"/><path class="cls-2" d="M62,71.62a6.36,6.36,0,0,0,.87.06,7.07,7.07,0,0,0,4.71-1.81A8.59,8.59,0,0,0,68.8,58.58a7.34,7.34,0,0,0-5-3,7.08,7.08,0,0,0-5.59,1.76,8.27,8.27,0,0,0-2.72,5.4A8.6,8.6,0,0,0,57,68.58,7.29,7.29,0,0,0,62,71.62ZM58.28,63a5.4,5.4,0,0,1,1.77-3.55,4.26,4.26,0,0,1,2.84-1.11l.52,0a4.5,4.5,0,0,1,3.09,1.9,5.69,5.69,0,0,1-.75,7.48A4.1,4.1,0,0,1,62.4,68.8a4.48,4.48,0,0,1-3.1-1.89A5.7,5.7,0,0,1,58.28,63Z"/><path class="cls-2" d="M76.4,79.26A3.18,3.18,0,0,0,74,80a3.53,3.53,0,0,0-1.16,2.29,3.57,3.57,0,0,0,.66,2.48,3.2,3.2,0,0,0,2.2,1.33l.4,0a3.16,3.16,0,0,0,2.09-.79,3.61,3.61,0,0,0,.51-4.78A3.25,3.25,0,0,0,76.4,79.26Zm-.13,4a.32.32,0,0,1-.21.08h0a.37.37,0,0,1-.26-.18.72.72,0,0,1-.13-.52.66.66,0,0,1,.21-.45.33.33,0,0,1,.22-.09h0a.42.42,0,0,1,.27.18A.77.77,0,0,1,76.27,83.24Z"/><path class="cls-2" d="M85.2,95.07a3.6,3.6,0,0,0,.5-4.78A3.26,3.26,0,0,0,83.48,89a3.11,3.11,0,0,0-2.48.77,3.58,3.58,0,0,0-.5,4.77,3.17,3.17,0,0,0,2.21,1.33l.39,0A3.16,3.16,0,0,0,85.2,95.07Zm-2.4-2.23a.75.75,0,0,1,.08-1,.3.3,0,0,1,.21-.09h0a.37.37,0,0,1,.27.18.77.77,0,0,1-.08,1,.33.33,0,0,1-.22.09h0A.4.4,0,0,1,82.8,92.84Z"/><path class="cls-2" d="M89.76,105.55l.38,0a3.2,3.2,0,0,0,2.1-.8,3.61,3.61,0,0,0,.5-4.78,3.26,3.26,0,0,0-2.25-1.33,3.14,3.14,0,0,0-2.45.78,3.6,3.6,0,0,0-.5,4.77A3.2,3.2,0,0,0,89.76,105.55Zm.16-4a.33.33,0,0,1,.22-.09h0a.4.4,0,0,1,.27.18.78.78,0,0,1-.08,1,.37.37,0,0,1-.22.08h0a.39.39,0,0,1-.27-.18A.77.77,0,0,1,89.92,101.58Z"/></g></g></svg>