<svg xmlns="http://www.w3.org/2000/svg" viewBox="0 0 169.51 169.51"><defs><style>.cls-1{fill:#009cde;}.cls-2{fill:#fff;}</style></defs><title>Recurso 19</title><g id="Capa_2" data-name="Capa 2"><g id="Capa_1-2" data-name="Capa 1"><circle class="cls-1" cx="84.75" cy="84.75" r="84.75" transform="translate(-35.11 84.75) rotate(-45)"/><path class="cls-2" d="M120.75,87.34v30a1.42,1.42,0,1,0,2.83,0v-30a1.42,1.42,0,0,0-2.83,0Z"/><path class="cls-2" d="M112.38,122.41h-1.72a1.38,1.38,0,0,0,.29-.82v-4.52a1.4,1.4,0,0,0-.1-.54L92.37,70.88,102,65.59,118,84.5a1.45,1.45,0,0,0,1.08.5,1.39,1.39,0,0,0,.63-.15l4.63-2.31a1.41,1.41,0,0,0,.78-1.27V53.41a1.58,1.58,0,0,0,0-.38l-3-10.83a1.42,1.42,0,0,0-.55-.77l-15-10.49a1.39,1.39,0,0,0-.81-.26h-9a1.43,1.43,0,0,0-1.42,1.42V53.28l-49,26.45A1.4,1.4,0,0,0,45.61,81V94.16A1.43,1.43,0,0,0,47,95.58a1.38,1.38,0,0,0,.68-.18L75.18,80.32,60.24,117.08a1.39,1.39,0,0,0-.1.53v4a1.35,1.35,0,0,0,.29.81h-2a1.42,1.42,0,1,0,0,2.83h54a1.42,1.42,0,0,0,0-2.83Zm7.1-40.59L104.55,64.2,112.23,60v7.74a1.45,1.45,0,0,0,.23.78l8.41,12.62Zm2.85-27.4V78.21L115.05,67.3V58.77a1.07,1.07,0,0,0-.06-.3l7.28-4Zm-5.44-12.78-7.22,3.9a1.36,1.36,0,0,0-.78-.78l-3.62-1.45V34.78a1.42,1.42,0,0,0-.82-1.27h.82ZM98.16,33.51h5.09a1.41,1.41,0,0,0-.81,1.27v9.49a1.4,1.4,0,0,0,.89,1.31l3.6,1.44-8.77,4.73ZM48.44,81.82l71-38.36h0l2.36,8.4a1.41,1.41,0,0,0-.94.13L48.44,91.77ZM63,121.6v-3.71L78.55,79.56a1.44,1.44,0,0,0,0-1.08l11.33-6.22,18.25,45.08v4.25a1.38,1.38,0,0,0,.29.82H105a1.33,1.33,0,0,0,.3-.82v-4.65a1.43,1.43,0,0,0-.2-.73L86.6,85.43a1.43,1.43,0,0,0-2.43,0L65.7,116.21a1.43,1.43,0,0,0-.2.73v4.65a1.38,1.38,0,0,0,.29.82H62.67A1.36,1.36,0,0,0,63,121.6Zm39.47-4.26h0L88,108l6-3.9a1.33,1.33,0,0,0,.29-.29l8.12,13.53Zm-10-15.63-7.1,4.6-7.11-4.6a1.43,1.43,0,0,0-.47-.18l7.58-12.62L93,101.53A1.43,1.43,0,0,0,92.49,101.71Zm-16,2.09a1.59,1.59,0,0,0,.29.29l6,3.9-14.44,9.35h0v0Zm-8.12,17.79V119.7a1.46,1.46,0,0,0,.78.24,1.36,1.36,0,0,0,.77-.23l15.51-10,15.5,10a1.38,1.38,0,0,0,.77.23,1.46,1.46,0,0,0,.78-.24v1.89a1.38,1.38,0,0,0,.29.82H68A1.38,1.38,0,0,0,68.33,121.59Z"/><path class="cls-2" d="M128.16,117.18a1.42,1.42,0,0,0-1.41,1.42v3H117.9v-3a1.42,1.42,0,1,0-2.83,0V123a1.41,1.41,0,0,0,1.41,1.41h11.68a1.42,1.42,0,0,0,1.42-1.41V118.6A1.43,1.43,0,0,0,128.16,117.18Z"/><path class="cls-2" d="M53.06,113.49H41.35a1.42,1.42,0,0,0-1.42,1.42V123a1.41,1.41,0,0,0,1.42,1.41H53.06A1.41,1.41,0,0,0,54.47,123v-8.11A1.42,1.42,0,0,0,53.06,113.49Zm-1.42,8.11H42.76v-5.28h8.88Z"/><path class="cls-2" d="M47,111.49a1.42,1.42,0,0,0,1.41-1.42V98.55a1.42,1.42,0,0,0-2.83,0v11.52A1.43,1.43,0,0,0,47,111.49Z"/><path class="cls-2" d="M84,77.56h2.84A1.41,1.41,0,0,1,88.22,79v2.84a1.42,1.42,0,0,1-1.42,1.42H84a1.42,1.42,0,0,1-1.42-1.42V79A1.42,1.42,0,0,1,84,77.56Z"/></g></g></svg>