<svg xmlns="http://www.w3.org/2000/svg" viewBox="0 0 840.73 269.78"><defs><style>.cls-1{opacity:0.15;}.cls-2{fill:#fff;}</style></defs><title>Recurso 21</title><g id="Capa_2" data-name="Capa 2"><g id="Capa_1-2" data-name="Capa 1"><g class="cls-1"><path class="cls-2" d="M179.17,72.23h62.47a15.18,15.18,0,1,0-10.48-26.15l-2.39,2.29-.66-3.24a17,17,0,0,0-33.73,3.41,17.51,17.51,0,0,0,.16,2.35l.34,2.48-2.47-.43a9.71,9.71,0,0,0-11.22,7.64l-.3,1.52-1.51-.05h-.31a5.1,5.1,0,0,0,.1,10.2Zm-.1-6.56h.15l3.09.1a1.83,1.83,0,0,0,1.84-1.46l.61-3a6.07,6.07,0,0,1,6-4.87,6.72,6.72,0,0,1,1.07.09l4.92.86a1.8,1.8,0,0,0,2.11-2l-.68-5a13.41,13.41,0,0,1,26.41-4.55l1.31,6.47a1.82,1.82,0,0,0,3,1l4.77-4.56a11.54,11.54,0,1,1,8,19.88H179.17a1.46,1.46,0,0,1-1.46-1.46A1.49,1.49,0,0,1,179.07,65.67Z"/><path class="cls-2" d="M490.56,40.73H553a15.18,15.18,0,1,0-10.48-26.15l-2.4,2.29-.66-3.25A17,17,0,0,0,505.76,17a19.34,19.34,0,0,0,.16,2.35l.35,2.48-2.48-.43a9.7,9.7,0,0,0-11.21,7.64l-.31,1.52-1.51-.05h-.31a5.1,5.1,0,0,0,.11,10.2Zm-.1-6.56h.15l3.08.1a1.82,1.82,0,0,0,1.84-1.46l.61-3a6.1,6.1,0,0,1,6-4.87,6.56,6.56,0,0,1,1.07.1l4.93.86a1.82,1.82,0,0,0,2.11-2l-.68-4.94a13.73,13.73,0,0,1-.14-1.86,13.41,13.41,0,0,1,26.54-2.69l1.32,6.47a1.81,1.81,0,0,0,3,.95l4.78-4.56a11.54,11.54,0,1,1,8,19.88H490.56a1.46,1.46,0,0,1-.1-2.92Z"/><path class="cls-2" d="M301.72,60.2A3.76,3.76,0,1,0,298,56.45,3.75,3.75,0,0,0,301.72,60.2Z"/><path class="cls-2" d="M330,60.2a3.76,3.76,0,1,0-3.76-3.75A3.75,3.75,0,0,0,330,60.2Z"/><path class="cls-2" d="M347.17,63.32a1.83,1.83,0,0,0-2.41.91,30.43,30.43,0,0,1-27.35,16.33c-10.84,0-19.52-2.77-25.1-8a18.51,18.51,0,0,1-5.21-8,1.82,1.82,0,0,0-3.53.85A21.59,21.59,0,0,0,289.62,75c4.37,4.2,12.73,9.21,27.79,9.21a33.68,33.68,0,0,0,30.66-18.47A1.82,1.82,0,0,0,347.17,63.32Z"/><path class="cls-2" d="M840.73,143.94c0-10.95-7.23-14.68-11.73-15.94a20.74,20.74,0,0,0,2.59-4.12c1.8-3.83,2.87-9.65-2.24-15.62a14.4,14.4,0,0,0-15-5,21.22,21.22,0,0,0-5.38,2.11c-1.73-4.1-6.48-12.25-17-12.25s-15.87,8.19-17.89,12.22c-4.34-2.68-11.16-5.3-18-1.32V50.9a1.88,1.88,0,0,0,0-2.32v-11a1.9,1.9,0,0,0-1.9-1.9h-96a1.89,1.89,0,0,0-1.89,1.9V150.73h-80.9a1.89,1.89,0,0,0-1.89,1.89v42.87H509.39V90.35a1.9,1.9,0,0,0-1.89-1.9H495.63V76a1.9,1.9,0,0,0-1.89-1.9H479.6V65.36a1.89,1.89,0,0,0-1.89-1.89h-49.5a1.9,1.9,0,0,0-1.9,1.89v8.76H412.16a1.9,1.9,0,0,0-1.89,1.9V88.53H398.41a1.9,1.9,0,0,0-1.9,1.89v9.45a2.26,2.26,0,0,0-.5.08,19.85,19.85,0,0,0-2.62,1.09c-1.9-5.94-7-14.16-16.76-14.16-10.74,0-16.27,9.47-18.31,14.05a22,22,0,0,0-6.39-3.19,46.63,46.63,0,1,0-76.77-7.38L262.91,119a1.83,1.83,0,0,0,2.28,2.43L296.1,110.4c2.61.91,12.6,4.22,19.95,4.22a46.4,46.4,0,0,0,15-2.48,24.76,24.76,0,0,0,2.91,10.79c-5.32,1.23-12.51,5.35-13.43,15.17-.56,6,2,10.71,7.43,13.67a23.3,23.3,0,0,0,5.16,2c-2.52,4-6.55,12.44-2.25,20.27a14.73,14.73,0,0,0,11.09,7.51,21.89,21.89,0,0,0,13.49-2.33,14.89,14.89,0,0,0,4.58,8.36H315.33V136.32a1.9,1.9,0,0,0-1.9-1.9H243.18V115.61a1.9,1.9,0,0,0-1.9-1.89h-98a1.89,1.89,0,0,0-1.89,1.89v37.5H85.07a1.89,1.89,0,0,0-1.89,1.9v44.68H70.4V142a1.9,1.9,0,0,0-1.9-1.9H4A1.9,1.9,0,0,0,2.15,142V255.72A1.9,1.9,0,0,0,4,257.62H49l-8.31,8.3a1.59,1.59,0,0,0-.25.33h-38C1.11,266.25,0,267,0,268s1.11,1.77,2.49,1.77H795.26c1.38,0,2.49-.79,2.49-1.77s-1.11-1.76-2.49-1.76h-144l7.84-8.63h137a1.89,1.89,0,0,0,1.89-1.9V192.43c5.11-2,7-5.36,7.63-8.06a17.22,17.22,0,0,0,9.89,3.48h0c4.38,0,8.46-2.07,12.12-6.14s5.38-8.45,4.9-12.81a16.41,16.41,0,0,0-4.22-8.93,19.57,19.57,0,0,0,4.19-1.65C836.28,156.32,840.73,152.2,840.73,143.94ZM730,253.83h-6.69V63H730Zm1.89-194.66H721.4a1.9,1.9,0,0,0-1.9,1.89V253.83H693.94V61.06a1.9,1.9,0,0,0-1.9-1.89H681.57a1.89,1.89,0,0,0-1.89,1.89V253.83h-9.39V51.63h72.05v202.2h-8.57V61.06A1.9,1.9,0,0,0,731.87,59.17ZM690.15,253.83h-6.68V63h6.68Zm56-202.2h6.19v202.2h-6.19Zm10,117h25.6v6.68h-25.6Zm0-18.49h25.6v6.68h-25.6Zm-3.79-110.6v8.32H660.16V39.52Zm-96,130.53H593.8v-6.68h62.57Zm0,19.72H593.8v-6.68h62.57Zm0,19.72H593.8v-6.68h62.57Zm0,19.72H593.8v-6.68h62.57ZM512.91,199.28h60.67v54.55H466.24V199.28h46.67Zm-76,54.55V189.45a1.88,1.88,0,0,0-1.9-1.86H424.56a1.88,1.88,0,0,0-1.9,1.86v64.38h-7.17V189.45a1.88,1.88,0,0,0-1.9-1.86H403.12a1.88,1.88,0,0,0-1.9,1.86v64.38h-7.17V189.45a1.88,1.88,0,0,0-1.9-1.86H381.68a1.88,1.88,0,0,0-1.9,1.86v64.38H369.6V178.41H486.26v17.08H464.35a1.9,1.9,0,0,0-1.9,1.89v56.45Zm-3.79,0h-6.69V191.31h6.69Zm-21.45,0H405V191.31h6.68Zm-21.44,0h-6.68V191.31h6.68ZM430.1,67.26h45.71v6.86H430.1Zm-16,10.65h77.78V88.53H414.06Zm-1.9,14.41h83.4a1.7,1.7,0,0,0,.51-.08h9.53V195.49H490.05v-19a1.9,1.9,0,0,0-1.89-1.9H400.3V92.32h11.86ZM296.72,106.76a1.82,1.82,0,0,0-1.24,0l-27.59,9.87,11-25.67a1.85,1.85,0,0,0-.1-1.62A43,43,0,1,1,316.05,111C308.36,111,296.84,106.81,296.72,106.76ZM358.82,176a1.82,1.82,0,0,0-3.06-1.45c-2.44,2.29-7.91,4.27-13.26,3.43A11.36,11.36,0,0,1,334,172.3c-4.6-8.4,3.49-18.52,3.57-18.62a1.83,1.83,0,0,0,.27-1.84,1.81,1.81,0,0,0-1.49-1.11c-.54-.06-13.26-1.54-12.25-12.29,1.07-11.46,12.3-12.26,12.78-12.29a1.81,1.81,0,0,0,1.42-2.8c0-.06-4-6.18-3.65-11.68a1.77,1.77,0,0,0-.17-.86,46.78,46.78,0,0,0,14.62-10l.05,0c4.68.63,8.65,4.32,8.68,4.36a1.82,1.82,0,0,0,3-.77c0-.13,4.59-13.92,15.79-13.92,11,0,13.73,13.16,13.84,13.72a1.84,1.84,0,0,0,1.21,1.39,1.88,1.88,0,0,0,.57.09,1.8,1.8,0,0,0,1.22-.48,10.94,10.94,0,0,1,3-1.6v71h-28.8a1.9,1.9,0,0,0-1.9,1.9V187C358.38,184.05,358.8,176.32,358.82,176Zm-40.57,15.4h47.56v62.44H269V191.39h49.25Zm-6.71-53.17v49.37H267.11a1.9,1.9,0,0,0-1.9,1.9v64.34H243.13V138.22ZM206.88,253.83V231.72a1.89,1.89,0,0,0-1.89-1.89H178a1.89,1.89,0,0,0-1.89,1.89v22.11H145.17V209.55h94.17v44.28Zm-13.51,0V233.62h9.72v20.21Zm-13.5,0V233.62h9.71v20.21Zm59.47-48.07H145.17v-41.1h94.17Zm-98-27.27H100.64v-5h40.74Zm0,16.3H100.64v-5h40.74Zm3.79-77.28h94.22V133.7a1.92,1.92,0,0,0,0,.41v26.76H145.17V117.51Zm-60.1,86a1.9,1.9,0,0,0,1.9-1.89V156.9h54.41v12.77H98.74a1.89,1.89,0,0,0-1.89,1.9v8.82a1.89,1.89,0,0,0,1.89,1.9h42.64V186H98.74a1.89,1.89,0,0,0-1.89,1.89v8.83a1.89,1.89,0,0,0,1.89,1.89h42.64v55.25H123V215.45a1.9,1.9,0,0,0-1.9-1.9H65.17a1.9,1.9,0,0,0-1.9,1.9v38.38H55.5V203.49H85.07Zm.62,50.35v-6.31h14.84v6.31Zm-18.63,0v-6.31H81.9v6.31Zm33.47-36.49v6.16H85.69v-6.16Zm18.63,0v6.16H104.32v-6.16Zm0,16.35H104.32v-6.4h14.84Zm-18.63,0H85.69v-6.4h14.84Zm-18.63,0H67.06v-6.4H81.9Zm-14.84,3.79H81.9v6.25H67.06Zm18.63,0h14.84v6.25H85.69Zm18.63,0h14.84v6.25H104.32Zm-22.42-14H67.06v-6.16H81.9Zm22.42,24h14.84v6.31H104.32Zm-52.61-25.7H37.19v-5H51.71Zm0,16.3H37.19v-5H51.71ZM5.94,143.9H66.61v55.8h-13a1.89,1.89,0,0,0-1.89,1.89V213H35.3a1.9,1.9,0,0,0-1.9,1.9v8.82a1.9,1.9,0,0,0,1.9,1.9H51.71v3.68H35.3a1.9,1.9,0,0,0-1.9,1.89V240a1.9,1.9,0,0,0,1.9,1.89H51.71v11.92H5.94ZM54.39,257.62H138.7L130.37,266a1.42,1.42,0,0,0-.25.3H45.76Zm592,8.38a2.2,2.2,0,0,0-.17.25H135.43l8.63-8.63H654.15Zm-22.52-12.17H613.46a1.49,1.49,0,0,0,0-.21V240.53h10.37v13.09A1.52,1.52,0,0,0,623.88,253.83Zm3.74,0a1.52,1.52,0,0,0,0-.21v-15a1.9,1.9,0,0,0-1.9-1.9H611.59a1.9,1.9,0,0,0-1.9,1.9v15a1.49,1.49,0,0,0,0,.21H577.37V154.52h79v5.06H591.9a1.9,1.9,0,0,0-1.9,1.9V172a1.9,1.9,0,0,0,1.9,1.9h64.47v5.45H591.9a1.9,1.9,0,0,0-1.9,1.9v10.47a1.89,1.89,0,0,0,1.9,1.89h64.47V199H591.9a1.9,1.9,0,0,0-1.9,1.89v10.48a1.9,1.9,0,0,0,1.9,1.89h64.47v5.46H591.9a1.9,1.9,0,0,0-1.9,1.89V231.1a1.9,1.9,0,0,0,1.9,1.9h64.47v20.83Zm32.54-22.47a2.28,2.28,0,0,0,0-.26,2.11,2.11,0,0,0,0-.25v-10a2.28,2.28,0,0,0,0-.26,2.11,2.11,0,0,0,0-.25v-8.74a2.11,2.11,0,0,0,0-.25,2.28,2.28,0,0,0,0-.26v-10a2.28,2.28,0,0,0,0-.26,2.11,2.11,0,0,0,0-.25v-8.74a2,2,0,0,0,0-.25,2.28,2.28,0,0,0,0-.26v-10a2.11,2.11,0,0,0,0-.25,2.28,2.28,0,0,0,0-.26V172.2a1.57,1.57,0,0,0,0-.5v-10a2,2,0,0,0,0-.25,2.28,2.28,0,0,0,0-.26V51.63h6.34v202.2h-6.34Zm134.06,22.47H756.11V179.08H783.6a1.9,1.9,0,0,0,1.9-1.89V166.71a1.9,1.9,0,0,0-1.9-1.89H756.11v-4.23H783.6a1.9,1.9,0,0,0,1.9-1.9V148.22a1.9,1.9,0,0,0-1.9-1.89H756.11v-13h38.11Zm29.18-93.54c.05,0,5,3.66,5.56,9,.35,3.28-1,6.63-4,10s-6.1,4.92-9.41,4.94h0c-5.65,0-10.09-4.78-10.13-4.83a1.82,1.82,0,0,0-3.13,1.59c.06.25,2.26,5-4.25,7.47v-57a1.89,1.89,0,0,0-1.89-1.89h-40V108.44c8.68-7,17.27.76,17.66,1.08a1.81,1.81,0,0,0,1.66.34,1.77,1.77,0,0,0,1.21-1.17c.05-.12,4.14-11.93,15.4-11.93,11.1,0,14.15,11.32,14.27,11.8a1.81,1.81,0,0,0,2.86,1c.41-.31,10.07-7.51,17.42,1.07s-2,16.83-2.35,17.17a1.82,1.82,0,0,0,1.11,3.2c.48,0,11.75.58,11.75,12.94S824.89,157,824.38,157a1.81,1.81,0,0,0-1.66,1.29A1.83,1.83,0,0,0,823.4,160.29Z"/><polygon class="cls-2" points="7.4 101.26 12.79 101.26 12.79 106.02 14.78 106.02 14.78 94.72 12.79 94.72 12.79 99.42 7.4 99.42 7.4 94.72 5.41 94.72 5.41 106.02 7.4 106.02 7.4 101.26"/><path class="cls-2" d="M19.91,106.2A3.43,3.43,0,0,0,22.67,105v1h1.94v-5c0-2.28-1.23-3.6-3.75-3.6a7.26,7.26,0,0,0-3.24.71l.53,1.56a6,6,0,0,1,2.44-.53c1.35,0,2.1.65,2.1,1.83v.16a7.18,7.18,0,0,0-2.36-.36c-2,0-3.46.91-3.46,2.8v0C16.87,105.28,18.3,106.2,19.91,106.2Zm-1.1-2.76c0-.82.73-1.33,2-1.33a5.68,5.68,0,0,1,1.95.34v.49c0,1.06-1,1.79-2.26,1.79-.92,0-1.65-.45-1.65-1.26Z"/><path class="cls-2" d="M28.89,104.7a3.46,3.46,0,0,0,2.89,1.5,4.08,4.08,0,0,0,4-4.42v0a4.09,4.09,0,0,0-4-4.42,3.41,3.41,0,0,0-2.89,1.6V97.5h-2v11.11h2Zm-.05-3A2.57,2.57,0,0,1,31.33,99a2.53,2.53,0,0,1,2.43,2.73v0a2.48,2.48,0,0,1-2.43,2.72,2.56,2.56,0,0,1-2.49-2.72Z"/><path class="cls-2" d="M39.7,104.7a3.49,3.49,0,0,0,2.9,1.5,4.08,4.08,0,0,0,4-4.42v0a4.09,4.09,0,0,0-4-4.42,3.41,3.41,0,0,0-2.9,1.6V97.5h-2v11.11h2Zm0-3A2.57,2.57,0,0,1,42.14,99a2.53,2.53,0,0,1,2.44,2.73v0a2.49,2.49,0,0,1-2.44,2.72,2.55,2.55,0,0,1-2.48-2.72Z"/><path class="cls-2" d="M49.7,107a2.39,2.39,0,0,1-1.15-.33l-.66,1.46a4,4,0,0,0,2,.52c1.37,0,2.13-.65,2.81-2.39l3.39-8.77h-2l-2.22,6.33L49.44,97.5H47.36L50.91,106C50.59,106.77,50.25,107,49.7,107Z"/><path class="cls-2" d="M9.12,125.59a4.3,4.3,0,0,0,3.49-1.6l-1.18-1.16a3,3,0,0,1-2.21,1.07,2.6,2.6,0,0,1-2.55-2.75v0a2.56,2.56,0,0,1,2.45-2.72,2.88,2.88,0,0,1,2.22,1.07l1.21-1.31a4.26,4.26,0,0,0-3.41-1.47,4.4,4.4,0,0,0-4.42,4.46v0A4.35,4.35,0,0,0,9.12,125.59Z"/><path class="cls-2" d="M14.31,116.87v5.43c0,2,1.11,3.28,3,3.28A3.07,3.07,0,0,0,20,124.07v1.33H22v-8.53H20v4.81a1.9,1.9,0,0,1-1.92,2.12c-1.17,0-1.83-.76-1.83-2.08v-4.85Z"/><path class="cls-2" d="M24.14,119.36c0,1.63,1.41,2.15,2.66,2.5,1,.31,1.91.53,1.91,1.2v0c0,.56-.48.92-1.32.92a4.81,4.81,0,0,1-2.8-1.05l-.87,1.32a6,6,0,0,0,3.62,1.28c1.77,0,3.16-.89,3.16-2.68v0c0-1.54-1.4-2.1-2.65-2.49-1-.32-1.92-.58-1.92-1.2v0c0-.5.44-.85,1.2-.85a4.91,4.91,0,0,1,2.4.8l.78-1.39a6,6,0,0,0-3.13-1c-1.7,0-3,1-3,2.59Z"/><path class="cls-2" d="M37,118.55v-1.68h-2.3v-2.34h-2v2.34H31.65v1.68h1.08V123a2.18,2.18,0,0,0,2.45,2.5,3.44,3.44,0,0,0,1.76-.43v-1.6a2.63,2.63,0,0,1-1.21.29.93.93,0,0,1-1-1.07v-4.18Z"/><path class="cls-2" d="M42.79,116.69a4.46,4.46,0,0,0-4.56,4.46v0a4.55,4.55,0,0,0,9.1,0v0A4.43,4.43,0,0,0,42.79,116.69Zm2.58,4.49a2.58,2.58,0,0,1-2.58,2.72,2.64,2.64,0,0,1-2.6-2.75v0a2.56,2.56,0,0,1,2.57-2.72,2.64,2.64,0,0,1,2.61,2.75Z"/><path class="cls-2" d="M53.86,116.69a3,3,0,0,0-2.59,1.47v-1.29h-2v8.53h2v-4.8c0-1.32.74-2.13,1.82-2.13s1.73.74,1.73,2.07v4.86h2v-4.81c0-1.38.76-2.12,1.83-2.12s1.73.73,1.73,2.08v4.85h2V120c0-2.09-1.13-3.27-3-3.27a3.49,3.49,0,0,0-2.89,1.5A2.69,2.69,0,0,0,53.86,116.69Z"/><path class="cls-2" d="M68.56,125.59a4.33,4.33,0,0,0,3.49-1.6l-1.15-1a3.08,3.08,0,0,1-2.31,1,2.38,2.38,0,0,1-2.46-2.16H72.4a5.36,5.36,0,0,0,0-.55c0-2.46-1.37-4.59-4.08-4.59a4.24,4.24,0,0,0-4.17,4.44v0A4.26,4.26,0,0,0,68.56,125.59Zm-.23-7.3a2.22,2.22,0,0,1,2.17,2.25H66.12A2.31,2.31,0,0,1,68.33,118.29Z"/><path class="cls-2" d="M76.36,122.15c0-2.26,1.19-3.37,2.9-3.37h.11v-2.07a3,3,0,0,0-3,2.08v-1.92h-2v8.53h2Z"/><path class="cls-2" d="M84,124A4.81,4.81,0,0,1,81.25,123l-.87,1.32A6,6,0,0,0,84,125.56c1.78,0,3.17-.89,3.17-2.68v0c0-1.54-1.41-2.1-2.65-2.49-1-.32-1.92-.58-1.92-1.2v0c0-.5.43-.85,1.19-.85a4.94,4.94,0,0,1,2.41.8l.77-1.39a5.93,5.93,0,0,0-3.13-1c-1.69,0-3,1-3,2.59v0c0,1.63,1.4,2.15,2.66,2.5,1,.31,1.91.53,1.91,1.2v0C85.37,123.65,84.88,124,84,124Z"/><rect class="cls-2" x="89.29" y="123.18" width="2.15" height="2.21"/><polygon class="cls-2" points="90.9 121.83 91.5 114.66 91.5 114.09 89.21 114.09 89.21 114.66 89.82 121.83 90.9 121.83"/><path class="cls-2" d="M16.6,172.12H55.88a1.9,1.9,0,0,0,1.9-1.9V159.51a1.9,1.9,0,0,0-1.9-1.89H16.6a1.9,1.9,0,0,0-1.9,1.89v10.71A1.9,1.9,0,0,0,16.6,172.12Zm1.9-10.71H54v6.92H18.5Z"/><path class="cls-2" d="M57.78,187.64V176.93a1.9,1.9,0,0,0-1.9-1.9H16.6a1.9,1.9,0,0,0-1.9,1.9v10.71a1.9,1.9,0,0,0,1.9,1.9H55.88A1.9,1.9,0,0,0,57.78,187.64Zm-3.8-1.9H18.5v-6.91H54Z"/><path class="cls-2" d="M253.55,159.67h46.5a1.9,1.9,0,0,0,1.9-1.9V147.06a1.9,1.9,0,0,0-1.9-1.89h-46.5a1.89,1.89,0,0,0-1.89,1.89v10.71A1.9,1.9,0,0,0,253.55,159.67Zm1.9-10.71h42.7v6.92h-42.7Z"/><path class="cls-2" d="M253.55,180.54h46.5a1.9,1.9,0,0,0,1.9-1.89V167.94a1.9,1.9,0,0,0-1.9-1.9h-46.5a1.9,1.9,0,0,0-1.89,1.9v10.71A1.89,1.89,0,0,0,253.55,180.54Zm1.9-10.71h42.7v6.92h-42.7Z"/><path class="cls-2" d="M275.66,201.27v28.48a1.89,1.89,0,0,0,1.89,1.89h81.27a1.9,1.9,0,0,0,1.9-1.89V201.27a1.9,1.9,0,0,0-1.9-1.89H277.55A1.89,1.89,0,0,0,275.66,201.27Zm81.27,17.85H279.45v-7h77.48Zm-77.48,8.73v-4.94h77.48v4.94Zm77.48-24.68v5.18H279.45v-5.18Z"/><path class="cls-2" d="M153.16,146.28h78.49a1.9,1.9,0,0,0,1.89-1.9V133.67a1.89,1.89,0,0,0-1.89-1.89H153.16a1.89,1.89,0,0,0-1.89,1.89v10.71A1.9,1.9,0,0,0,153.16,146.28Zm1.9-10.71h74.69v6.92H155.06Z"/><path class="cls-2" d="M153.16,192.09h78.49a1.9,1.9,0,0,0,1.89-1.9V179.48a1.89,1.89,0,0,0-1.89-1.89H153.16a1.89,1.89,0,0,0-1.89,1.89v10.71A1.9,1.9,0,0,0,153.16,192.09Zm1.9-10.71h74.69v6.92H155.06Z"/><path class="cls-2" d="M494.33,205H480a1.89,1.89,0,0,0-1.89,1.89v8.34a1.9,1.9,0,0,0,1.89,1.9h14.31a1.9,1.9,0,0,0,1.9-1.9v-8.34A1.89,1.89,0,0,0,494.33,205Zm-1.9,8.33H481.92v-4.54h10.51Z"/><path class="cls-2" d="M494.33,226.7H480a1.9,1.9,0,0,0-1.89,1.9v8.34a1.89,1.89,0,0,0,1.89,1.89h14.31a1.9,1.9,0,0,0,1.9-1.89V228.6A1.9,1.9,0,0,0,494.33,226.7Zm-1.9,8.34H481.92v-4.55h10.51Z"/><path class="cls-2" d="M500.4,206.87v8.34a1.9,1.9,0,0,0,1.9,1.9h14.3a1.9,1.9,0,0,0,1.9-1.9v-8.34a1.89,1.89,0,0,0-1.9-1.89H502.3A1.89,1.89,0,0,0,500.4,206.87Zm3.79,1.9h10.52v4.54H504.19Z"/><path class="cls-2" d="M516.6,226.7H502.3a1.9,1.9,0,0,0-1.9,1.9v8.34a1.9,1.9,0,0,0,1.9,1.89h14.3a1.9,1.9,0,0,0,1.9-1.89V228.6A1.9,1.9,0,0,0,516.6,226.7ZM514.71,235H504.19v-4.55h10.52Z"/><path class="cls-2" d="M524.57,217.11h14.3a1.9,1.9,0,0,0,1.9-1.9v-8.34a1.89,1.89,0,0,0-1.9-1.89h-14.3a1.89,1.89,0,0,0-1.9,1.89v8.34A1.9,1.9,0,0,0,524.57,217.11Zm1.89-8.34H537v4.54H526.46Z"/><path class="cls-2" d="M524.57,238.83h14.3a1.9,1.9,0,0,0,1.9-1.89V228.6a1.9,1.9,0,0,0-1.9-1.9h-14.3a1.9,1.9,0,0,0-1.9,1.9v8.34A1.9,1.9,0,0,0,524.57,238.83Zm1.89-8.34H537V235H526.46Z"/><path class="cls-2" d="M546.84,217.11h14.31a1.9,1.9,0,0,0,1.89-1.9v-8.34a1.89,1.89,0,0,0-1.89-1.89H546.84a1.89,1.89,0,0,0-1.9,1.89v8.34A1.9,1.9,0,0,0,546.84,217.11Zm1.89-8.34h10.52v4.54H548.73Z"/><path class="cls-2" d="M546.84,238.83h14.31a1.89,1.89,0,0,0,1.89-1.89V228.6a1.9,1.9,0,0,0-1.89-1.9H546.84a1.9,1.9,0,0,0-1.9,1.9v8.34A1.9,1.9,0,0,0,546.84,238.83Zm1.89-8.34h10.52V235H548.73Z"/><path class="cls-2" d="M410.37,159.67H427.9a1.9,1.9,0,0,0,1.9-1.9v-46.5a1.9,1.9,0,0,0-1.9-1.89H410.37a1.89,1.89,0,0,0-1.89,1.89v46.5A1.9,1.9,0,0,0,410.37,159.67Zm1.9-46.5H426v42.71H412.27Z"/><path class="cls-2" d="M443.3,159.67h17.53a1.9,1.9,0,0,0,1.89-1.9v-46.5a1.89,1.89,0,0,0-1.89-1.89H443.3a1.9,1.9,0,0,0-1.9,1.89v46.5A1.9,1.9,0,0,0,443.3,159.67Zm1.9-46.5h13.73v42.71H445.2Z"/><path class="cls-2" d="M476.6,159.67h17.52a1.9,1.9,0,0,0,1.9-1.9v-46.5a1.9,1.9,0,0,0-1.9-1.89H476.6a1.9,1.9,0,0,0-1.9,1.89v46.5A1.9,1.9,0,0,0,476.6,159.67Zm1.89-46.5h13.74v42.71H478.49Z"/><rect class="cls-2" x="533.64" y="64.58" width="1.6" height="9.09"/><path class="cls-2" d="M541.06,64.58h-3.4v9.1h3.4a4.56,4.56,0,0,0,4.83-4.55v0A4.54,4.54,0,0,0,541.06,64.58Zm3.15,4.58a3,3,0,0,1-3.15,3.06h-1.8V66h1.8a3,3,0,0,1,3.15,3.09Z"/><polygon class="cls-2" points="554.57 66.01 554.57 64.58 547.83 64.58 547.83 73.68 554.64 73.68 554.64 72.25 549.43 72.25 549.43 69.81 553.99 69.81 553.99 68.38 549.43 68.38 549.43 66.01 554.57 66.01"/><path class="cls-2" d="M562.63,71.48l.93,2.2h1.68l-4-9.16h-1.48l-4,9.16h1.64l.93-2.2Zm-2.15-5,1.57,3.64h-3.13Z"/><path class="cls-2" d="M566.41,67.09v0c0,1.67,1.09,2.25,3,2.71,1.69.39,2.06.74,2.06,1.39v0c0,.69-.63,1.14-1.62,1.14A4.22,4.22,0,0,1,567,71.21l-1,1.14a5.59,5.59,0,0,0,3.8,1.46c1.91,0,3.24-1,3.24-2.72v0c0-1.51-1-2.2-2.92-2.67C568.42,68,568,67.68,568,67v0c0-.6.55-1.08,1.49-1.08a4.1,4.1,0,0,1,2.46.94l.86-1.21a5,5,0,0,0-3.3-1.14C567.71,64.46,566.41,65.53,566.41,67.09Z"/><polygon class="cls-2" points="532.89 81.67 535.78 81.67 535.78 89.28 537.39 89.28 537.39 81.67 540.27 81.67 540.27 80.18 532.89 80.18 532.89 81.67"/><polygon class="cls-2" points="541.97 89.28 548.78 89.28 548.78 87.85 543.57 87.85 543.57 85.41 548.13 85.41 548.13 83.98 543.57 83.98 543.57 81.61 548.71 81.61 548.71 80.18 541.97 80.18 541.97 89.28"/><path class="cls-2" d="M552.47,87.08h4.3l.92,2.2h1.69l-4-9.16H553.9l-4,9.16h1.63Zm2.14-5,1.58,3.64h-3.14Z"/><polygon class="cls-2" points="569.89 80.18 568.18 80.18 565.42 84.48 562.65 80.18 560.95 80.18 560.95 89.28 562.52 89.28 562.52 82.78 565.36 87.04 565.42 87.04 568.29 82.76 568.29 89.28 569.89 89.28 569.89 80.18"/><polygon class="cls-2" points="574.7 89.34 576.08 89.34 578.31 82.81 580.54 89.34 581.92 89.34 585.09 80.18 583.42 80.18 581.25 86.93 579.01 80.16 577.66 80.16 575.43 86.93 573.26 80.18 571.53 80.18 574.7 89.34"/><path class="cls-2" d="M590.58,89.43a4.65,4.65,0,0,0,4.77-4.7v0a4.76,4.76,0,0,0-9.51,0v0A4.61,4.61,0,0,0,590.58,89.43Zm-3.06-4.72a3.07,3.07,0,0,1,3.06-3.21,3.11,3.11,0,0,1,3.09,3.23v0A3.08,3.08,0,0,1,590.61,88a3.11,3.11,0,0,1-3.09-3.24Z"/><path class="cls-2" d="M598.89,86.11h2l2.24,3.17H605l-2.46-3.44a2.73,2.73,0,0,0,2.17-2.76v0a2.77,2.77,0,0,0-.75-2,3.66,3.66,0,0,0-2.62-.91h-4.06v9.1h1.6Zm0-4.47h2.33c1.18,0,1.88.53,1.88,1.51v0c0,.92-.73,1.52-1.87,1.52h-2.34Z"/><polygon class="cls-2" points="608.29 86.64 609.71 85.19 612.81 89.28 614.75 89.28 610.8 84.09 614.58 80.18 612.62 80.18 608.29 84.76 608.29 80.18 606.69 80.18 606.69 89.28 608.29 89.28 608.29 86.64"/><path class="cls-2" d="M540.59,98.82c0-1.83-1.34-3-3.46-3h-3.59v9.1h1.6V102H537c2,0,3.64-1.06,3.64-3.1Zm-1.63.07c0,1-.75,1.62-2,1.62h-1.86V97.24H537c1.2,0,2,.56,2,1.62Z"/><path class="cls-2" d="M543.11,102.68h4.3l.92,2.2H550l-4-9.16h-1.48l-4,9.16h1.64Zm2.14-5.05,1.58,3.64H543.7Z"/><path class="cls-2" d="M554.65,103.59a4.2,4.2,0,0,1-2.87-1.18l-1,1.14a5.57,5.57,0,0,0,3.79,1.46c1.91,0,3.25-1,3.25-2.72v0c0-1.51-1-2.2-2.92-2.67-1.74-.41-2.16-.72-2.16-1.43v0c0-.6.55-1.08,1.48-1.08a4.11,4.11,0,0,1,2.47.93l.86-1.2a5.05,5.05,0,0,0-3.3-1.15c-1.81,0-3.11,1.08-3.11,2.64v0c0,1.67,1.1,2.24,3,2.71,1.69.39,2,.74,2,1.39v0C556.26,103.14,555.64,103.59,554.65,103.59Z"/><path class="cls-2" d="M566.05,102.29v0c0-1.51-1-2.2-2.92-2.67-1.74-.41-2.16-.72-2.16-1.43v0c0-.6.55-1.08,1.48-1.08a4.11,4.11,0,0,1,2.47.93l.86-1.2a5.05,5.05,0,0,0-3.3-1.15c-1.81,0-3.11,1.08-3.11,2.64v0c0,1.67,1.1,2.24,3,2.71,1.69.39,2.05.74,2.05,1.39v0c0,.69-.62,1.14-1.61,1.14a4.2,4.2,0,0,1-2.87-1.18l-1,1.14A5.57,5.57,0,0,0,562.8,105C564.71,105,566.05,104,566.05,102.29Z"/><rect class="cls-2" x="568.03" y="95.78" width="1.6" height="9.09"/><path class="cls-2" d="M581.17,100.33v0a4.76,4.76,0,0,0-9.51,0v0A4.61,4.61,0,0,0,576.4,105,4.66,4.66,0,0,0,581.17,100.33Zm-1.68,0a3.08,3.08,0,0,1-3.06,3.21,3.12,3.12,0,0,1-3.1-3.24v0a3.07,3.07,0,0,1,3.07-3.2,3.11,3.11,0,0,1,3.09,3.23Z"/><polygon class="cls-2" points="591.04 104.88 591.04 95.78 589.46 95.78 589.46 102.07 584.59 95.78 583.11 95.78 583.11 104.88 584.68 104.88 584.68 98.41 589.7 104.88 591.04 104.88"/><polygon class="cls-2" points="540.35 119.05 535.14 119.05 535.14 116.61 539.7 116.61 539.7 115.18 535.14 115.18 535.14 112.81 540.29 112.81 540.29 111.38 533.54 111.38 533.54 120.48 540.35 120.48 540.35 119.05"/><polygon class="cls-2" points="546.77 115.83 549.95 111.38 548.11 111.38 545.84 114.64 543.58 111.38 541.7 111.38 544.88 115.85 541.57 120.48 543.4 120.48 545.8 117.03 548.19 120.48 550.08 120.48 546.77 115.83"/><polygon class="cls-2" points="558.47 112.81 558.47 111.38 551.73 111.38 551.73 120.48 558.54 120.48 558.54 119.05 553.33 119.05 553.33 116.61 557.89 116.61 557.89 115.18 553.33 115.18 553.33 112.81 558.47 112.81"/><path class="cls-2" d="M564.66,120.63a4.69,4.69,0,0,0,3.69-1.61l-1-1a3.57,3.57,0,0,1-2.62,1.18,3.07,3.07,0,0,1-3-3.23v0a3.05,3.05,0,0,1,3-3.21,3.62,3.62,0,0,1,2.55,1.14l1-1.19a4.75,4.75,0,0,0-3.56-1.41,4.59,4.59,0,0,0-4.69,4.7v0A4.56,4.56,0,0,0,564.66,120.63Z"/><path class="cls-2" d="M577.67,111.38h-1.6v5.24c0,1.67-.87,2.53-2.28,2.53s-2.3-.91-2.3-2.6v-5.17h-1.6v5.24c0,2.64,1.51,4,3.87,4s3.91-1.36,3.91-4.08Z"/><polygon class="cls-2" points="586.6 111.38 579.22 111.38 579.22 112.86 582.11 112.86 582.11 120.48 583.72 120.48 583.72 112.86 586.6 112.86 586.6 111.38"/><rect class="cls-2" x="588.39" y="111.38" width="1.6" height="9.09"/><path class="cls-2" d="M592,115.93v0a4.6,4.6,0,0,0,4.74,4.67,4.65,4.65,0,0,0,4.76-4.7v0a4.6,4.6,0,0,0-4.74-4.67A4.65,4.65,0,0,0,592,115.93Zm1.67,0a3.08,3.08,0,0,1,3.07-3.21,3.12,3.12,0,0,1,3.09,3.24v0a3.07,3.07,0,0,1-3.07,3.2,3.11,3.11,0,0,1-3.09-3.23Z"/><polygon class="cls-2" points="604.95 111.38 603.47 111.38 603.47 120.48 605.04 120.48 605.04 114.01 610.05 120.48 611.39 120.48 611.39 111.38 609.82 111.38 609.82 117.67 604.95 111.38"/><path class="cls-2" d="M536.77,134.79a4.2,4.2,0,0,1-2.87-1.18l-1,1.14a5.61,5.61,0,0,0,3.8,1.46c1.91,0,3.25-1,3.25-2.72v0c0-1.5-1-2.19-2.93-2.66-1.74-.41-2.15-.73-2.15-1.43v0c0-.6.54-1.08,1.48-1.08a4.14,4.14,0,0,1,2.47.93l.85-1.21a5,5,0,0,0-3.3-1.14c-1.8,0-3.1,1.08-3.1,2.64v0c0,1.67,1.09,2.24,3,2.71,1.69.39,2.06.74,2.06,1.39v0C538.38,134.34,537.75,134.79,536.77,134.79Z"/><path class="cls-2" d="M541.72,127v5.24c0,2.63,1.51,4,3.87,4s3.91-1.37,3.91-4.08V127h-1.6v5.24c0,1.67-.87,2.53-2.28,2.53s-2.3-.91-2.3-2.6V127Z"/><path class="cls-2" d="M555.93,136.23a4.69,4.69,0,0,0,3.69-1.61l-1-1a3.55,3.55,0,0,1-2.61,1.18,3.07,3.07,0,0,1-3-3.23v0a3.05,3.05,0,0,1,3-3.21,3.61,3.61,0,0,1,2.54,1.13l1-1.18a4.74,4.74,0,0,0-3.56-1.41,4.6,4.6,0,0,0-4.69,4.7v0A4.58,4.58,0,0,0,555.93,136.23Z"/><path class="cls-2" d="M565.26,136.23a4.69,4.69,0,0,0,3.69-1.61l-1-1a3.55,3.55,0,0,1-2.61,1.18,3.07,3.07,0,0,1-3-3.23v0a3.05,3.05,0,0,1,3-3.21,3.65,3.65,0,0,1,2.55,1.13l1-1.18a4.73,4.73,0,0,0-3.55-1.41,4.59,4.59,0,0,0-4.69,4.7v0A4.57,4.57,0,0,0,565.26,136.23Z"/><polygon class="cls-2" points="577.37 128.41 577.37 126.98 570.63 126.98 570.63 136.08 577.44 136.08 577.44 134.65 572.23 134.65 572.23 132.2 576.79 132.2 576.79 130.78 572.23 130.78 572.23 128.41 577.37 128.41"/><path class="cls-2" d="M582.56,134.79a4.2,4.2,0,0,1-2.87-1.18l-1,1.14a5.57,5.57,0,0,0,3.79,1.46c1.91,0,3.25-1,3.25-2.72v0c0-1.5-1-2.19-2.92-2.66-1.74-.41-2.16-.73-2.16-1.43v0c0-.6.55-1.08,1.48-1.08a4.14,4.14,0,0,1,2.47.93l.86-1.21a5,5,0,0,0-3.3-1.14c-1.81,0-3.11,1.08-3.11,2.64v0c0,1.67,1.1,2.24,3,2.71,1.69.39,2,.74,2,1.39v0C584.17,134.34,583.55,134.79,582.56,134.79Z"/><path class="cls-2" d="M591.35,134.79a4.2,4.2,0,0,1-2.87-1.18l-1,1.14a5.61,5.61,0,0,0,3.8,1.46c1.91,0,3.25-1,3.25-2.72v0c0-1.5-1-2.19-2.93-2.66-1.74-.41-2.15-.73-2.15-1.43v0c0-.6.54-1.08,1.48-1.08a4.14,4.14,0,0,1,2.47.93l.85-1.21a5,5,0,0,0-3.3-1.14c-1.8,0-3.1,1.08-3.1,2.64v0c0,1.67,1.09,2.24,3,2.71,1.68.39,2.05.74,2.05,1.39v0C593,134.34,592.33,134.79,591.35,134.79Z"/><polygon class="cls-2" points="598.62 126.98 596.77 126.98 596.77 127.44 597.26 133.21 598.13 133.21 598.62 127.44 598.62 126.98"/><rect class="cls-2" x="596.84" y="134.3" width="1.73" height="1.78"/></g></g></g></svg>