<svg xmlns="http://www.w3.org/2000/svg" viewBox="0 0 295.32 221.75"><defs><style>.cls-1,.cls-2{fill:#009cde;}.cls-2{stroke:#009cde;stroke-miterlimit:10;}.cls-3{fill-rule:evenodd;}</style></defs><title>Recurso 3</title><g id="Capa_2" data-name="Capa 2"><g id="Capa_1-2" data-name="Capa 1"><path class="cls-1" d="M103.17,157.36l-1-.62-1.12,1.8-1.32-.82,3.73-6,2.45,1.52a2.42,2.42,0,0,1,1,3.5v0C106,158.15,104.52,158.2,103.17,157.36Zm2.39-1.42a1.08,1.08,0,0,0-.5-1.58l-1-.63-1.14,1.83,1,.65a1.09,1.09,0,0,0,1.61-.26Z"/><path class="cls-1" d="M112.74,164.6l-.5-2.68-1.12-.48-.89,2.07-1.43-.61,2.79-6.49,3,1.28c1.52.65,2.1,1.86,1.52,3.19v0a2.18,2.18,0,0,1-2.25,1.41l.59,3Zm1.86-4.27c.27-.61,0-1.11-.72-1.41l-1.42-.61-.8,1.87,1.45.62a1,1,0,0,0,1.49-.45Z"/><path class="cls-1" d="M122.41,167.84a3.62,3.62,0,0,1-2.77-4.42v0a3.66,3.66,0,0,1,4.53-2.65,3.62,3.62,0,0,1,2.77,4.42v0A3.66,3.66,0,0,1,122.41,167.84Zm3-3a2.14,2.14,0,0,0-1.55-2.66,2.11,2.11,0,0,0-2.58,1.63v0a2.14,2.14,0,0,0,1.55,2.66,2.1,2.1,0,0,0,2.58-1.63Z"/><path class="cls-1" d="M134,169.59l-2.75-.2.53-7,2.74.2a3.53,3.53,0,0,1,3.49,3.78v0A3.53,3.53,0,0,1,134,169.59Zm2.38-3.36a2,2,0,0,0-2-2.28l-1.2-.09-.32,4.25,1.2.08a2,2,0,0,0,2.28-1.94Z"/><path class="cls-1" d="M142.83,169.79l-.55-7,5.31-.42.11,1.38-3.78.3.11,1.43,3.32-.26.11,1.37-3.32.26.12,1.48,3.82-.3.11,1.38Z"/><path class="cls-1" d="M158.09,167.46l-4.36-3.58,1,4.37-1.49.35-1.63-6.87,1.4-.33,4.22,3.47-1-4.24,1.49-.35,1.63,6.87Z"/><path class="cls-1" d="M166.87,164.6a4.51,4.51,0,0,1-3.2.08l.43-1.36a3.31,3.31,0,0,0,2.28,0c.59-.24.85-.62.69-1v0c-.14-.37-.44-.46-1.65-.3-1.46.2-2.45.18-3-1.11v0a2.2,2.2,0,0,1,1.49-2.9,4.07,4.07,0,0,1,2.76-.16l-.3,1.39a3.31,3.31,0,0,0-2,0c-.56.23-.74.6-.61.92h0c.18.43.52.46,1.76.29,1.47-.19,2.41,0,2.88,1.12v0C169,162.89,168.28,164,166.87,164.6Z"/><path class="cls-1" d="M178.33,158.58l-1.37-1-2.56,1.53.26,1.69-1.36.82-1.06-7.66,1.23-.74,6.25,4.55Zm-4.53-3.41.37,2.45,1.61-1Z"/><path class="cls-1" d="M50.37,126.35a8.4,8.4,0,0,1-8.48-8.49v-19H17v19a8.4,8.4,0,0,1-8.48,8.49A8.4,8.4,0,0,1,0,117.86V64.5A8.4,8.4,0,0,1,8.49,56,8.4,8.4,0,0,1,17,64.5V83.08H41.89V64.5a8.49,8.49,0,1,1,17,0v53.36A8.4,8.4,0,0,1,50.37,126.35ZM15.85,96.66H43a1.12,1.12,0,0,1,1.12,1.12v20.08a6.25,6.25,0,1,0,12.49,0V64.5a6.25,6.25,0,1,0-12.49,0V84.2A1.12,1.12,0,0,1,43,85.32H15.85a1.12,1.12,0,0,1-1.12-1.12V64.5a6.18,6.18,0,0,0-6.24-6.25A6.18,6.18,0,0,0,2.24,64.5v53.36a6.18,6.18,0,0,0,6.25,6.25,6.18,6.18,0,0,0,6.24-6.25V97.78A1.12,1.12,0,0,1,15.85,96.66Z"/><path class="cls-1" d="M71.41,126.35a8.4,8.4,0,0,1-8.49-8.49V64.5a8.49,8.49,0,1,1,17,0v7.55a1.14,1.14,0,0,1-.18.61l-.34.52a33.88,33.88,0,0,0-5.21,18.2v.2a34.32,34.32,0,0,0,5.59,19.24,1.16,1.16,0,0,1,.19.62v6.42A8.42,8.42,0,0,1,71.41,126.35Zm0-68.1a6.18,6.18,0,0,0-6.25,6.25v53.36a6.27,6.27,0,0,0,12.54,0v-6.08a36.59,36.59,0,0,1-5.78-20.2v-.2A36.17,36.17,0,0,1,77.48,72l.17-.25V64.5A6.18,6.18,0,0,0,71.41,58.25Z"/><path d="M286.93,126.35c-3.25,0-5.48-1.18-7.68-4.08l-14.8-19.4-14.6,19c-2.08,2.68-4.24,4.46-8.06,4.46H201.65a8.39,8.39,0,0,1-8.48-8.49V64.5A8.39,8.39,0,0,1,201.65,56h41.77c3.25,0,5.48,1.18,7.68,4.08l13.75,18.33,13.64-18c2.08-2.68,4.25-4.46,8.06-4.46a7.88,7.88,0,0,1,7.82,7.91,9.84,9.84,0,0,1-2.44,6.34L275.47,90.41l17.4,21.39a10.19,10.19,0,0,1,2.45,6.16A8.2,8.2,0,0,1,286.93,126.35ZM264.46,99.91h0a1.11,1.11,0,0,1,.89.44L281,120.91c1.8,2.36,3.34,3.19,5.9,3.19a5.94,5.94,0,0,0,6.15-6.14,8,8,0,0,0-1.95-4.75l-18-22.09a1.14,1.14,0,0,1,0-1.42l17-20.85a7.58,7.58,0,0,0,1.94-4.93,5.63,5.63,0,0,0-5.57-5.67c-2.58,0-4.23.94-6.29,3.59L265.73,81a1.12,1.12,0,0,1-.89.45h0a1.15,1.15,0,0,1-.9-.45L249.31,61.44c-1.79-2.35-3.33-3.19-5.89-3.19H201.65a6.17,6.17,0,0,0-6.24,6.25v53.36a6.17,6.17,0,0,0,6.24,6.24h40.14c2.59,0,4.23-.93,6.29-3.58l15.49-20.17A1.11,1.11,0,0,1,264.46,99.91Z"/><path d="M238.31,112.67h-29a1.12,1.12,0,0,1-1.12-1.12V97.49a1.12,1.12,0,0,1,1.12-1.12h25.54a5.43,5.43,0,1,0,0-10.86H209.28a1.12,1.12,0,0,1-1.12-1.12V70.81a1.12,1.12,0,0,1,1.12-1.12h29.85a1.12,1.12,0,0,1,.87.41l16.24,19.79a1.12,1.12,0,0,1,0,1.42l-17.06,21A1.15,1.15,0,0,1,238.31,112.67Zm-27.9-2.24h27.36l16.15-19.82L238.6,71.93H210.41V83.27h24.41a7.67,7.67,0,1,1,0,15.34H210.41Z"/><path class="cls-1" d="M179.94,126.35a8.4,8.4,0,0,1-8.49-8.49v-19H147.21v19a8.4,8.4,0,0,1-8.47,8.49h0a7.32,7.32,0,0,1-5.62-2.54c-1.85-2.2-2.55-5.57-.32-7.74,3.33-3.25,3.33-6.95,3.32-11.63V93.69a6.22,6.22,0,0,0-6.28-6.29H112.87a5.33,5.33,0,0,0-5.33,5.33A5.23,5.23,0,0,0,112.87,98h10A1.12,1.12,0,0,1,124,99.08v9.63a1.15,1.15,0,0,1-.47.91,24.84,24.84,0,0,1-14.6,4.24c-12.47,0-21.52-9.45-21.52-22.47v-.2C87.4,79,96.58,69.1,107.86,69.1a24.54,24.54,0,0,1,15.37,4.83A6.22,6.22,0,0,0,133.29,69a4,4,0,0,0-.44-1.94,4.49,4.49,0,0,0-.4-.63,6.42,6.42,0,0,1-.7-1.23,5.86,5.86,0,0,1-.38-2.44A7.21,7.21,0,0,1,138.72,56a8.4,8.4,0,0,1,8.49,8.49V83.08h24.24V64.5a8.49,8.49,0,1,1,17,0v53.36A8.39,8.39,0,0,1,179.94,126.35Zm-33.85-29.7h26.48a1.13,1.13,0,0,1,1.13,1.12v20.09a6.24,6.24,0,1,0,12.48,0V64.5a6.24,6.24,0,0,0-12.48,0V84.2a1.13,1.13,0,0,1-1.13,1.12H146.09A1.13,1.13,0,0,1,145,84.2V64.5a6.17,6.17,0,0,0-6.24-6.24A5,5,0,0,0,134.8,60a5.09,5.09,0,0,0-1.19,2.94,3.32,3.32,0,0,0,.23,1.47,3.84,3.84,0,0,0,.46.79,7.46,7.46,0,0,1,.55.9,6.31,6.31,0,0,1,.69,3,8.5,8.5,0,0,1-8.43,8.41,8.37,8.37,0,0,1-5.19-1.75,22.4,22.4,0,0,0-14.06-4.4c-10,0-18.21,8.9-18.21,19.84v.2c0,11.72,8.1,20.22,19.27,20.22a22.85,22.85,0,0,0,12.82-3.49V100.2h-8.87a7.52,7.52,0,1,1,0-15H129.8a8.44,8.44,0,0,1,8.53,8.53v10.74c0,4.8,0,9.34-4,13.25-1.31,1.27-.67,3.32.48,4.69a5.1,5.1,0,0,0,3.92,1.74,6.18,6.18,0,0,0,6.23-6.25V97.77A1.13,1.13,0,0,1,146.09,96.65Z"/><path class="cls-1" d="M79.22,49.3,76.6,47.71a.42.42,0,0,1-.14-.59l1.12-1.84a.39.39,0,0,1,.66.4l-.91,1.48.68.41.78-1.27a.38.38,0,1,1,.65.4L78.67,48l.7.43.92-1.51a.39.39,0,0,1,.66.4l-1.14,1.87A.42.42,0,0,1,79.22,49.3Z"/><path class="cls-1" d="M80.9,46.07l-.47-1.6-1.56.12a.61.61,0,0,1-.34-.08.42.42,0,0,1-.1-.59.45.45,0,0,1,.4-.21l1.42,0-.44-1.34a.46.46,0,0,1,0-.47.38.38,0,0,1,.55-.09.51.51,0,0,1,.2.29L81,43.57l1.66-.12a.49.49,0,0,1,.33.08.41.41,0,0,1,.11.59.44.44,0,0,1-.4.2l-1.51.06.46,1.42a.46.46,0,0,1,0,.47.39.39,0,0,1-.55.1A.54.54,0,0,1,80.9,46.07Z"/><path class="cls-1" d="M81,41.08a.43.43,0,0,1-.08-.61l.72-.91a1.33,1.33,0,0,1,2-.34h0a1.4,1.4,0,0,1,.11,2.09l-.4.51.61.48a.42.42,0,0,1,.08.6.43.43,0,0,1-.61.07Zm2.16-.26a.6.6,0,0,0,0-.9h0a.6.6,0,0,0-.9.18l-.41.53,1,.73Z"/><path class="cls-1" d="M85.73,40.05l-2.29-2a.43.43,0,0,1,0-.61l1.43-1.62a.39.39,0,0,1,.55,0,.38.38,0,0,1,0,.54l-1.15,1.3.6.53,1-1.12a.39.39,0,0,1,.54,0,.38.38,0,0,1,0,.54l-1,1.12.62.54,1.17-1.32a.39.39,0,0,1,.58.51L86.34,40A.43.43,0,0,1,85.73,40.05Z"/><path class="cls-1" d="M86,35.16a.43.43,0,0,1,0-.61l1-1A1.56,1.56,0,0,1,88,33.06a1.23,1.23,0,0,1,.87.4h0a1.21,1.21,0,0,1,.3,1.4l.94.08a.52.52,0,0,1,.33.14.41.41,0,0,1,0,.57.54.54,0,0,1-.46.14l-1.35-.16-.48.49.61.6a.43.43,0,1,1-.6.61ZM88.27,35a.57.57,0,0,0,.07-.86h0c-.26-.26-.58-.21-.87.09l-.6.6.8.79Z"/><path class="cls-1" d="M89.88,31.88l-.61.55a.41.41,0,0,1-.56,0,.4.4,0,0,1,0-.56l1.85-1.68a.4.4,0,0,1,.54.59l-.61.55,1.83,2a.42.42,0,0,1,0,.6.43.43,0,0,1-.61,0Z"/><path class="cls-1" d="M92.46,31.13h0a2.07,2.07,0,0,1,3.22-2.59h0a2.07,2.07,0,0,1-3.23,2.59Zm2.54-2h0a1.18,1.18,0,1,0-1.84,1.46h0a1.18,1.18,0,0,0,1.69.23A1.16,1.16,0,0,0,95,29.11Z"/><path class="cls-1" d="M97.18,29.37a.4.4,0,0,1-.32-.17.39.39,0,0,1,.1-.55.36.36,0,0,1,.24-.08,1.62,1.62,0,0,0,1-.29c.28-.2.37-.44.24-.63h0c-.13-.18-.3-.2-.93,0s-1.3.41-1.75-.23h0a1.22,1.22,0,0,1,.43-1.75,2.25,2.25,0,0,1,1.2-.43.38.38,0,0,1,.35.17.39.39,0,0,1-.09.55.46.46,0,0,1-.21.08,1.56,1.56,0,0,0-.82.26c-.27.19-.32.41-.21.57h0c.15.21.34.19,1-.06s1.29-.31,1.69.24h0a1.24,1.24,0,0,1-.47,1.82A2.42,2.42,0,0,1,97.18,29.37Z"/><path class="cls-1" d="M101.54,26.38,100,23.76a.43.43,0,0,1,.15-.59L102,22.06a.38.38,0,1,1,.39.66l-1.49.89.41.68,1.28-.76a.37.37,0,0,1,.52.14.38.38,0,0,1-.13.52l-1.27.76.42.71,1.51-.91a.39.39,0,0,1,.53.14.37.37,0,0,1-.14.52l-1.87,1.12A.42.42,0,0,1,101.54,26.38Z"/><path class="cls-1" d="M103.29,21.77a.43.43,0,0,1,.18-.58l.08,0a.52.52,0,0,1,.51,0l2.48,1.16-.94-1.79a.42.42,0,0,1,.17-.57.43.43,0,0,1,.58.18l1.45,2.76a.44.44,0,0,1-.18.59h0a.54.54,0,0,1-.51,0l-2.57-1.21,1,1.86a.43.43,0,1,1-.75.4Z"/><path class="cls-1" d="M109.87,21.78l0-3.38a.54.54,0,0,1,.33-.5l0,0a.53.53,0,0,1,.59.12l2.45,2.32a.67.67,0,0,1,.11.14.41.41,0,0,1-.22.54.43.43,0,0,1-.49-.11l-.48-.47-1.58.67v.7a.41.41,0,0,1-.78.18A.58.58,0,0,1,109.87,21.78Zm1.8-1.94-1-1v1.4Z"/><path class="cls-1" d="M113.56,17.51l-.77.28a.39.39,0,0,1-.51-.24.4.4,0,0,1,.24-.51l2.35-.85a.39.39,0,0,1,.51.24.4.4,0,0,1-.24.51l-.77.28.93,2.56a.43.43,0,1,1-.8.3Z"/><path class="cls-1" d="M116.11,16.22a.44.44,0,0,1,.29-.54l1.29-.39a1.57,1.57,0,0,1,1.2.05,1.23,1.23,0,0,1,.58.77h0a1.22,1.22,0,0,1-.4,1.37l.78.52a.53.53,0,0,1,.23.28.4.4,0,0,1-.28.5.52.52,0,0,1-.47-.09l-1.1-.78-.66.2.25.82a.43.43,0,0,1-.28.54.44.44,0,0,1-.54-.29Zm2.08.91c.4-.12.56-.4.47-.72h0c-.11-.35-.41-.46-.81-.34l-.81.25.32,1.08Z"/><path class="cls-1" d="M120.61,17.94l.6-3.33a.52.52,0,0,1,.4-.45h0a.52.52,0,0,1,.56.22l2,2.69a.35.35,0,0,1,.08.16.41.41,0,0,1-.3.5.45.45,0,0,1-.47-.2l-.4-.54-1.66.41-.11.69a.43.43,0,0,1-.32.35.39.39,0,0,1-.48-.3A.41.41,0,0,1,120.61,17.94Zm2.09-1.62-.83-1.14-.22,1.39Z"/><path class="cls-1" d="M124.37,15.61h0A2,2,0,0,1,126,13.24a2.07,2.07,0,0,1,1.35.15.45.45,0,0,1,.23.31.42.42,0,0,1-.34.49.44.44,0,0,1-.27,0,1.32,1.32,0,0,0-.83-.13,1.16,1.16,0,0,0-.89,1.41h0a1.16,1.16,0,0,0,1.33,1,1.27,1.27,0,0,0,.78-.46.36.36,0,0,1,.23-.14.4.4,0,0,1,.47.32.41.41,0,0,1-.09.33,2.05,2.05,0,0,1-3.6-.89Z"/><path class="cls-1" d="M128.36,14.89h0a2,2,0,0,1,1.75-2.27,2.09,2.09,0,0,1,1.35.23.44.44,0,0,1,.21.32.43.43,0,0,1-.37.47.41.41,0,0,1-.26-.05,1.27,1.27,0,0,0-.83-.18,1.16,1.16,0,0,0-1,1.36h0a1.16,1.16,0,0,0,1.28,1.08,1.29,1.29,0,0,0,.8-.41.36.36,0,0,1,.24-.13.4.4,0,0,1,.34.67,1.92,1.92,0,0,1-1.31.66A2,2,0,0,1,128.36,14.89Z"/><path class="cls-1" d="M132.57,12.82a.44.44,0,0,1,.39-.47.43.43,0,0,1,.47.39l.26,3.11a.42.42,0,0,1-.38.47.43.43,0,0,1-.47-.39Z"/><path class="cls-1" d="M134.41,14.22h0a2.07,2.07,0,0,1,4.14-.19h0a2,2,0,0,1-2,2.11A2,2,0,0,1,134.41,14.22Zm3.24-.14h0a1.18,1.18,0,0,0-1.23-1.18,1.16,1.16,0,0,0-1.11,1.27h0a1.18,1.18,0,0,0,1.23,1.18A1.17,1.17,0,0,0,137.65,14.08Zm-1.51-2.39a.27.27,0,0,1,.05-.15l.29-.5a.36.36,0,0,1,.3-.2c.21,0,.48.11.49.24a.28.28,0,0,1-.1.2l-.34.34a.6.6,0,0,1-.47.21C136.24,11.83,136.15,11.78,136.14,11.69Z"/><path class="cls-1" d="M139.38,12.47a.42.42,0,0,1,.43-.42h.09a.52.52,0,0,1,.44.26L142,14.53l0-2a.43.43,0,0,1,.85,0l-.06,3.12a.43.43,0,0,1-.44.43h0a.54.54,0,0,1-.44-.26l-1.68-2.3,0,2.1a.43.43,0,0,1-.85,0Z"/><path class="cls-1" d="M145.64,12.73a.43.43,0,0,1,.47-.39l1.09.11a1.94,1.94,0,0,1,1.87,2.14h0a2,2,0,0,1-2.25,1.75l-1.09-.11a.41.41,0,0,1-.38-.47Zm1.25,2.85a1.12,1.12,0,0,0,1.29-1.05v0a1.13,1.13,0,0,0-1.06-1.29l-.66-.06-.23,2.35Z"/><path class="cls-1" d="M149.66,16.24l.46-3a.43.43,0,0,1,.49-.36l2.13.33a.38.38,0,0,1-.11.76l-1.72-.27-.12.79,1.47.23a.39.39,0,0,1,.32.44.39.39,0,0,1-.44.32l-1.47-.23-.12.81,1.74.28a.38.38,0,0,1-.12.76L150,16.73A.43.43,0,0,1,149.66,16.24Z"/><path class="cls-1" d="M153.93,13.8a.43.43,0,0,1,.51-.34.43.43,0,0,1,.33.51l-.55,2.69,1.55.32a.39.39,0,0,1,.3.46.39.39,0,0,1-.46.31l-2-.41a.42.42,0,0,1-.33-.51Z"/><path class="cls-1" d="M159.87,15.6l-.79-.23a.4.4,0,0,1-.28-.49.4.4,0,0,1,.49-.27l2.41.68a.38.38,0,0,1,.27.48.39.39,0,0,1-.48.28l-.8-.22L160,18.45a.42.42,0,0,1-.53.3.42.42,0,0,1-.29-.53Z"/><path class="cls-1" d="M161.13,18.62l2.27-2.5A.52.52,0,0,1,164,16l.05,0a.51.51,0,0,1,.36.48l.31,3.36a.52.52,0,0,1,0,.18.39.39,0,0,1-.51.26.43.43,0,0,1-.3-.41l-.05-.67-1.62-.54-.47.53a.44.44,0,0,1-.46.13.4.4,0,0,1-.24-.51A.54.54,0,0,1,161.13,18.62Zm2.63-.27-.1-1.4L162.74,18Z"/><path class="cls-1" d="M166.47,17.31a.43.43,0,0,1,.56-.24.42.42,0,0,1,.23.56l-1,2.55,1.48.58a.39.39,0,0,1,.21.51.38.38,0,0,1-.5.23l-1.87-.75a.42.42,0,0,1-.24-.56Z"/><path class="cls-1" d="M168.5,21.47l1.27-2.78a.44.44,0,0,1,.57-.22l2,.9a.38.38,0,0,1,.19.51.37.37,0,0,1-.5.19l-1.59-.72-.33.72,1.36.62a.38.38,0,0,1,.18.51.37.37,0,0,1-.5.19l-1.35-.62-.35.75,1.61.73a.39.39,0,0,1,.19.51.38.38,0,0,1-.51.19l-2-.91A.42.42,0,0,1,168.5,21.47Z"/><path class="cls-1" d="M173.29,20.29a.44.44,0,0,1,.59-.18l.07,0a.53.53,0,0,1,.28.44l.44,2.7,1-1.79a.42.42,0,0,1,.57-.18.43.43,0,0,1,.18.58l-1.46,2.76a.43.43,0,0,1-.58.18h0a.52.52,0,0,1-.27-.43l-.46-2.81-1,1.86a.43.43,0,0,1-.58.18.42.42,0,0,1-.17-.57Z"/><path class="cls-1" d="M177.87,23.25l-.71-.42a.41.41,0,0,1-.13-.55.39.39,0,0,1,.54-.14l2.14,1.3a.39.39,0,0,1,.14.54.41.41,0,0,1-.55.14l-.7-.43L177.19,26a.42.42,0,0,1-.59.14.43.43,0,0,1-.14-.59Z"/><path class="cls-1" d="M179.34,25.52h0a2.07,2.07,0,0,1,3.42,2.33h0a2.07,2.07,0,0,1-3.42-2.33ZM182,27.35h0a1.18,1.18,0,0,0-.28-1.68,1.17,1.17,0,0,0-1.65.34h0a1.19,1.19,0,0,0,.27,1.69A1.16,1.16,0,0,0,182,27.35Z"/><path class="cls-1" d="M185.75,28.16a.43.43,0,0,1,.67.54l-.74.9,1.22,1,.73-.89a.43.43,0,0,1,.61-.06.44.44,0,0,1,.06.61l-2,2.41a.42.42,0,0,1-.6.06.43.43,0,0,1-.06-.61l.75-.9-1.22-1-.75.91a.43.43,0,1,1-.66-.55Z"/><path class="cls-1" d="M187.84,32.3,189.1,31a.44.44,0,0,1,.61,0,.43.43,0,0,1,0,.61l-1.24,1.33A.85.85,0,1,0,189.69,34L191,32.68a.44.44,0,0,1,.61,0,.42.42,0,0,1,0,.61l-1.24,1.32a1.58,1.58,0,0,1-2.46.13A1.54,1.54,0,0,1,187.84,32.3Z"/><path class="cls-1" d="M192.31,34a.43.43,0,0,1,.61,0l.06.07a.45.45,0,0,1,.11.44l-.54,1.91,2-.4a.4.4,0,0,1,.42.13l.06.07a.41.41,0,0,1,0,.6L192.7,39a.44.44,0,0,1-.61,0,.42.42,0,0,1,0-.6L193.54,37l-1.36.25a.4.4,0,0,1-.49-.52l.34-1.33-1.43,1.34a.41.41,0,0,1-.59,0,.43.43,0,0,1,0-.6Z"/><path class="cls-1" d="M193.28,39.4l3.25-.9a.52.52,0,0,1,.58.18l0,0a.53.53,0,0,1,.05.6l-1.54,3a.42.42,0,0,1-.69.09.45.45,0,0,1,0-.51l.32-.59L194.17,40l-.67.2A.42.42,0,0,1,193,40a.4.4,0,0,1,.06-.56A.49.49,0,0,1,193.28,39.4Zm2.36,1.18.66-1.23-1.34.4Z"/><path class="cls-1" d="M198.47,41.15a.42.42,0,0,1,.6.1l.05.07a.55.55,0,0,1,.06.51l-.83,2.61L200,43.27a.42.42,0,1,1,.49.69l-2.55,1.81a.42.42,0,0,1-.6-.1v0a.52.52,0,0,1-.05-.51l.85-2.71-1.71,1.22a.42.42,0,0,1-.49-.69Z"/><path class="cls-1" d="M199.68,45.57h0a2.07,2.07,0,0,1,2.16,3.53h0a2,2,0,0,1-2.82-.72A2,2,0,0,1,199.68,45.57Zm1.68,2.78h0a1.18,1.18,0,0,0,.44-1.65,1.17,1.17,0,0,0-1.65-.36h0a1.19,1.19,0,0,0-.44,1.65A1.17,1.17,0,0,0,201.36,48.35Z"/><path class="cls-2" d="M139.15,179.8a88.44,88.44,0,0,1-77.89-46.92.56.56,0,1,1,1-.53,87,87,0,0,0,154-.36.56.56,0,0,1,.76-.23.55.55,0,0,1,.23.76A88.39,88.39,0,0,1,139.15,179.8Z"/><path class="cls-2" d="M139.65,174.75c-29.31,0-56.67-16.17-71.39-42.22a.55.55,0,0,1,.21-.76.56.56,0,0,1,.76.21c14.53,25.69,41.51,41.65,70.42,41.65s55.9-16,70.42-41.65a.56.56,0,1,1,1,.55C196.32,158.57,169,174.75,139.65,174.75Z"/><path class="cls-1" d="M140.27,158.79A68.24,68.24,0,0,1,87,133.31a1.68,1.68,0,1,1,2.61-2.11,65.14,65.14,0,0,0,101.37,0,1.68,1.68,0,1,1,2.62,2.11A68.24,68.24,0,0,1,140.27,158.79Z"/><path class="cls-2" d="M217.8,50.68a.58.58,0,0,1-.5-.31c-15-30.07-44.91-48.75-78.15-48.75A87,87,0,0,0,61,50.36a.57.57,0,0,1-.75.26.58.58,0,0,1-.26-.76C75.15,19.42,105.48.5,139.15.5A88.08,88.08,0,0,1,218.3,49.87a.55.55,0,0,1-.25.75A.54.54,0,0,1,217.8,50.68Z"/><path class="cls-2" d="M67.61,50.68a.48.48,0,0,1-.26-.07.56.56,0,0,1-.23-.76c14.45-27.33,42.25-44.3,72.53-44.3s58.06,17,72.52,44.28a.56.56,0,0,1-1,.52C196.91,23.41,169.51,6.67,139.65,6.67S82.37,23.42,68.11,50.38A.57.57,0,0,1,67.61,50.68Z"/><path class="cls-1" d="M193.65,51.28a1.17,1.17,0,0,1-.93-.46,65.65,65.65,0,0,0-104.9,0A1.17,1.17,0,0,1,86,49.41a68,68,0,0,1,108.62,0,1.17,1.17,0,0,1-.23,1.63A1.2,1.2,0,0,1,193.65,51.28Z"/><path d="M70.75,207.91H69.36v2h-.65v-5.76h2.15c1.3,0,2.16.69,2.16,1.84S72,207.91,70.75,207.91Zm.06-3.13H69.36v2.54h1.42c1,0,1.58-.51,1.58-1.28S71.74,204.78,70.81,204.78Z"/><path d="M77.25,210a2.89,2.89,0,0,1-2.93-3,2.94,2.94,0,1,1,2.93,3Zm0-5.36A2.27,2.27,0,0,0,75,207.05a2.3,2.3,0,0,0,2.27,2.39,2.27,2.27,0,0,0,2.26-2.37A2.3,2.3,0,0,0,77.25,204.68Z"/><path d="M85.13,204.16h.53L87.24,209l1.65-4.8h.68L87.51,210H87l-1.58-4.67L83.79,210h-.54l-2.06-5.8h.71l1.65,4.8Z"/><path d="M95.28,204.77H91.77v2h3.14v.59H91.77v2h3.55v.59h-4.2v-5.76h4.16Z"/><path d="M101,209.94,99.3,207.7H97.65v2.24H97v-5.76h2.48c1.26,0,2.08.68,2.08,1.72a1.7,1.7,0,0,1-1.57,1.69l1.77,2.35Zm-1.54-5.16H97.65v2.34h1.77c.86,0,1.48-.45,1.48-1.19S100.36,204.78,99.43,204.78Z"/><path d="M107.48,204.77H104v2h3.14v.59H104v2h3.55v.59h-4.2v-5.76h4.16Z"/><path d="M111.2,209.94h-2v-5.76h2a2.89,2.89,0,1,1,0,5.76Zm0-5.16h-1.35v4.56h1.35a2.28,2.28,0,1,0,0-4.56Z"/><path d="M123.17,205.62a1.38,1.38,0,0,1-.91,1.34c.68.21,1.23.6,1.23,1.4,0,1-.83,1.58-2.09,1.58h-2.56v-5.76h2.45C122.43,204.18,123.17,204.74,123.17,205.62Zm-.66.09c0-.57-.45-1-1.27-1h-1.76v2h1.71C122,206.75,122.51,206.4,122.51,205.71Zm.32,2.61c0-.63-.52-1-1.53-1h-1.82v2h1.94C122.29,209.36,122.83,209,122.83,208.32Z"/><path d="M127.37,209.94h-.66v-2.28l-2.4-3.48h.79l1.94,2.88,2-2.88h.76l-2.39,3.47Z"/><path class="cls-3" d="M144,205h-2.84v2.13h2.54a1.42,1.42,0,0,0,1.27-.45,1,1,0,0,0,.18-.62,1.17,1.17,0,0,0-.16-.62,1,1,0,0,0-1-.44m-2.84,5.28h-1v-6.1h3.8a2.1,2.1,0,0,1,1.6.51A1.77,1.77,0,0,1,146,206a1.64,1.64,0,0,1-1.36,1.74l2,2.51h-1.32l-1.83-2.34h-2.43Z"/><path d="M138.84,210.28h-.91v-.63l-.09.1a3.53,3.53,0,0,1-2.15.68,3.13,3.13,0,0,1-3.21-3.21,3.39,3.39,0,0,1,.48-1.74,3.34,3.34,0,0,1,2.86-1.44,3.57,3.57,0,0,1,2.43.87,2.67,2.67,0,0,1,.62.87l-1,.32a2.29,2.29,0,0,0-.38-.49,2.35,2.35,0,0,0-1.62-.61,2.15,2.15,0,0,0-2.35,2.17,2.6,2.6,0,0,0,.35,1.3,2.38,2.38,0,0,0,3.67.29,1.56,1.56,0,0,0,.38-.87h-2.36V207h3.26Z"/><path d="M147.28,207.75v-3.57h1v3.6c0,.68.07,1,.49,1.31a2.27,2.27,0,0,0,1.41.37,2.88,2.88,0,0,0,1.23-.24c.6-.29.63-.77.63-1.33v-3.71h1v3.64a2.21,2.21,0,0,1-.87,2.08,4,4,0,0,1-4.08-.06,2.33,2.33,0,0,1-.83-2.09"/><path d="M155.47,207.11h2.38a1.64,1.64,0,0,0,1-.2,1,1,0,0,0,.41-.86,1,1,0,0,0-.26-.71,1.5,1.5,0,0,0-1.2-.34h-2.29Zm-1,3.17v-6.1h3.42a2.39,2.39,0,0,1,1.73.52,1.92,1.92,0,0,1,.56,1.39,2,2,0,0,1-.3,1.08,2.09,2.09,0,0,1-1.92.77h-2.47v2.34Z"/><path d="M163.87,204.87a2.29,2.29,0,0,0-2.42,2.39,2.38,2.38,0,0,0,.48,1.49,2.53,2.53,0,0,0,2.07.85,2.23,2.23,0,0,0,2.49-2.37,2.32,2.32,0,0,0-2.62-2.36m-3.3,2.44a3.41,3.41,0,0,1,6.81,0,3.09,3.09,0,0,1-3.38,3.12,3.69,3.69,0,0,1-2.29-.67,2.92,2.92,0,0,1-1.14-2.46"/><path class="cls-1" d="M170.16,207.11h2.37a1.67,1.67,0,0,0,1-.2,1.13,1.13,0,0,0,.15-1.57,1.51,1.51,0,0,0-1.2-.34h-2.29Zm-1,3.17v-6.1h3.42a2.38,2.38,0,0,1,1.73.52,1.93,1.93,0,0,1,.57,1.39,1.82,1.82,0,0,1-2.22,1.85h-2.48v2.34Z"/><path class="cls-1" d="M179.39,205h-2.85v2.11h2.55a1.4,1.4,0,0,0,1.26-.45,1,1,0,0,0,.19-.62,1.18,1.18,0,0,0-.17-.62,1,1,0,0,0-1-.44m-2.85,5.28h-1v-6.1h3.79a2.08,2.08,0,0,1,1.6.51,1.74,1.74,0,0,1,.52,1.34,1.64,1.64,0,0,1-1.36,1.74l2,2.51h-1.31L179,207.94h-2.44Z"/><path class="cls-1" d="M185.57,204.87a2.29,2.29,0,0,0-2.41,2.39,2.38,2.38,0,0,0,.48,1.49,2.52,2.52,0,0,0,2.07.85,2.23,2.23,0,0,0,2.48-2.37,2.32,2.32,0,0,0-2.62-2.36m-3.29,2.44a3.41,3.41,0,0,1,6.81,0,3.09,3.09,0,0,1-3.38,3.12,3.69,3.69,0,0,1-2.29-.67,2.92,2.92,0,0,1-1.14-2.46"/><path class="cls-1" d="M192.87,205H191v4.47h1.58a2.33,2.33,0,0,0,2.1-.82,2.64,2.64,0,0,0,.42-1.48,2.35,2.35,0,0,0-.57-1.62,2,2,0,0,0-1.61-.55m-.53,5.29h-2.28v-6.1h2.8a2.85,2.85,0,0,1,2.15.68,3,3,0,0,1,.94,2.33,3.29,3.29,0,0,1-.79,2.22,3.59,3.59,0,0,1-2.82.87"/><polygon class="cls-1" points="202.16 210.28 196.92 210.28 196.92 204.18 202.16 204.18 202.16 205.14 197.93 205.14 197.93 206.65 202.16 206.65 202.16 207.58 197.93 207.58 197.93 209.32 202.16 209.32 202.16 210.28"/><path class="cls-1" d="M203.31,210.28v-6.1h1l3.69,4.23.33.4c0-.14,0-.25,0-.46v-4.17h1v6.1h-.93l-3.86-4.43-.19-.23c0,.17,0,.33,0,.62v4Z"/><path class="cls-1" d="M210.18,209.29c-.09-.12-.17-.24-.25-.37l.92-.41a1.6,1.6,0,0,0,.41.41,3.18,3.18,0,0,0,2,.55c1.17,0,1.72-.46,1.72-1.07s-.6-.72-1.07-.78c-.23,0-.48-.06-.74-.09a3.84,3.84,0,0,1-2.31-.6,1.47,1.47,0,0,1-.42-1.07c0-1.49,1.49-1.83,2.65-1.83a3.71,3.71,0,0,1,2.23.61,2.55,2.55,0,0,1,.65.74l-.91.4a4,4,0,0,0-.35-.36,2.59,2.59,0,0,0-1.6-.46,3.14,3.14,0,0,0-1.25.22.72.72,0,0,0-.42.64.56.56,0,0,0,.14.37c.15.19.37.24.89.3s1,.09,1.47.15a4.58,4.58,0,0,1,.71.12,1.61,1.61,0,0,1,1.33,1.63,1.92,1.92,0,0,1-.29,1.05,2.79,2.79,0,0,1-2.48,1,6,6,0,0,1-1.43-.18,2.91,2.91,0,0,1-1.55-1"/><path class="cls-1" d="M220.54,208l-1.14-2.46-.12-.3a2,2,0,0,1-.06-.23c0,.08-.05.16-.08.25l-.13.31L217.87,208ZM217,210.28h-1.12l2.91-6.1h1l2.89,6.1h-1.15l-.66-1.44h-3.17Z"/><path class="cls-1" d="M215.4,213.2,211.3,216a.45.45,0,1,1-.51-.74l4.1-2.82a.45.45,0,1,1,.51.75"/><path class="cls-1" d="M215.58,215.14l-5.08,3.49a.45.45,0,1,1-.51-.74l5.08-3.49a.45.45,0,1,1,.51.74"/><path class="cls-1" d="M218.8,215l-5.89,4a.45.45,0,1,1-.51-.74l5.89-4a.45.45,0,1,1,.51.74"/><path class="cls-1" d="M222.31,214.64l-10.23,7a.45.45,0,1,1-.5-.74l10.22-7a.45.45,0,1,1,.51.74"/></g></g></svg>