<svg xmlns="http://www.w3.org/2000/svg" viewBox="0 0 134.25 217.79"><defs><style>.cls-1{fill:none;stroke:#009cde;stroke-linecap:round;stroke-linejoin:round;stroke-width:4px;}.cls-2{fill:#009cde;}</style></defs><title>Recurso 2</title><g id="Capa_2" data-name="Capa 2"><g id="Capa_1-2" data-name="Capa 1"><path class="cls-1" d="M65.64,129.27a63.64,63.64,0,1,1,63.63-63.64A63.71,63.71,0,0,1,65.64,129.27Z"/><path class="cls-1" d="M49.18,4.74A38.69,38.69,0,0,1,53.5,22.47,38.48,38.48,0,0,1,15.06,60.91,29.5,29.5,0,0,1,3.6,58.61"/><path class="cls-1" d="M33.64,13.24A23.06,23.06,0,0,1,5.77,47.47"/><path class="cls-1" d="M123,41.51c-7.74,7.4-19.48,10.93-31.12,10.93A41,41,0,0,1,53.48,25.62"/><path class="cls-1" d="M118.05,29.59a33.84,33.84,0,0,1-21.37,7.5A34.21,34.21,0,0,1,62.51,2.91"/><path class="cls-1" d="M107.51,20a21,21,0,0,1-8,1.6A21.09,21.09,0,0,1,78.91,4.89"/><path class="cls-1" d="M62.55,41.58V75a2.85,2.85,0,0,1-.9,2.08A41.36,41.36,0,0,0,56,83.76H69.78"/><path class="cls-2" d="M86,71.38a4.26,4.26,0,1,1-4.26-4.26A4.26,4.26,0,0,1,86,71.38Z"/><path class="cls-2" d="M46.85,71.38a4.26,4.26,0,1,1-4.26-4.26A4.26,4.26,0,0,1,46.85,71.38Z"/><path class="cls-1" d="M77.3,101.68a18.76,18.76,0,0,1-26.5,0"/><path class="cls-1" d="M79.56,132.6a15.75,15.75,0,1,1-29.35,7.94A15.85,15.85,0,0,1,52,133.26"/><path class="cls-1" d="M78.62,151.55l6.09,52.15a2.88,2.88,0,0,1-1.41,2.81l-15.43,8.9a2.84,2.84,0,0,1-1.43.38,2.79,2.79,0,0,1-1.43-.38l-15.43-8.9a2.85,2.85,0,0,1-1.41-2.81l6.08-52.15"/><path class="cls-1" d="M48.63,205.05H5.39a2.86,2.86,0,0,1-2.86-2.86c0-39.62,29.1-71.86,64.86-71.86s64.86,32.24,64.86,71.86a2.86,2.86,0,0,1-2.86,2.86H86.28"/></g></g></svg>