<svg xmlns="http://www.w3.org/2000/svg" viewBox="0 0 452.07 32.18"><defs><style>.cls-1,.cls-2{fill:#231f20;}.cls-1{fill-rule:evenodd;}.cls-3{fill:#009cde;}</style></defs><title>Recurso 11</title><g id="Capa_2" data-name="Capa 2"><g id="Capa_1-2" data-name="Capa 1"><path class="cls-1" d="M57.56,4.89H43.28V15.56H56.06c2.11,0,4.8,0,6.33-2.24a5.27,5.27,0,0,0,.93-3.13,6.08,6.08,0,0,0-.8-3.13c-1.23-2.12-3.2-2.12-5-2.17M43.28,31.38h-5V.75h19c3,.05,5.69.27,8,2.55A8.86,8.86,0,0,1,67.92,10c0,4.8-2.45,7.72-6.81,8.73L71.27,31.38H64.68L55.5,19.62H43.28Z"/><path class="cls-2" d="M31.92,31.38H27.37V28.21l-.49.48a17.53,17.53,0,0,1-10.74,3.4A15.68,15.68,0,0,1,0,16,17,17,0,0,1,2.44,7.28C5.09,3.1,10.3,0,16.79,0A18,18,0,0,1,29,4.41a14.28,14.28,0,0,1,3.12,4.38l-4.94,1.62a12.46,12.46,0,0,0-1.88-2.48,11.87,11.87,0,0,0-8.17-3c-6.44,0-11.78,3.89-11.78,10.89A13,13,0,0,0,7.08,22.3C9.87,27,15.24,27.38,17,27.38a11.37,11.37,0,0,0,8.5-3.66,7.88,7.88,0,0,0,1.91-4.35H15.54v-4.7H31.92Z"/><path class="cls-2" d="M74.24,18.66V.75h5.08V18.81c0,3.4.37,5.11,2.44,6.56.91.65,2.95,1.89,7.11,1.89A14.22,14.22,0,0,0,95,26c3-1.45,3.16-3.83,3.16-6.66V.75h5.08V19c0,4.25-.5,7.69-4.4,10.42-2,1.41-5.16,2.65-10,2.65-3.59,0-7.32-.64-10.39-3-4.1-3.06-4.2-7.14-4.2-10.47"/><path class="cls-2" d="M115.33,15.48h11.93c1.53,0,3.42,0,4.83-1a5.06,5.06,0,0,0,2-4.29,5.14,5.14,0,0,0-1.27-3.59c-1.54-1.67-3.88-1.71-6-1.71h-11.5Zm-5.09,15.9V.75h17.17c3.62,0,6.43.55,8.67,2.62a9.66,9.66,0,0,1,2.84,7,10.11,10.11,0,0,1-1.52,5.42c-2.54,3.85-6.93,3.85-9.62,3.85H115.36V31.38Z"/><path class="cls-2" d="M157.45,4.23c-5.65.17-12.11,3.25-12.11,12a12.05,12.05,0,0,0,2.38,7.5c2.55,3.21,6.49,4.26,10.42,4.26,10,0,12.45-6.89,12.45-11.88,0-7.76-5.72-12-13.14-11.84M140.91,16.44c0-11.31,8.62-16.4,17-16.4,9.77,0,17.2,6.31,17.2,16.45,0,10.47-8,15.69-16.94,15.69-4,0-8.17-.81-11.51-3.38-2.78-2.1-5.72-5.93-5.72-12.36"/><path class="cls-3" d="M189,15.48h11.89c1.54,0,3.42,0,4.85-1a5.1,5.1,0,0,0,2-4.29,5.19,5.19,0,0,0-1.27-3.59c-1.54-1.67-3.89-1.71-6-1.71H189Zm-5.12,15.9V.75h17.16c3.62,0,6.44.55,8.68,2.62a9.7,9.7,0,0,1,2.84,7,10.23,10.23,0,0,1-1.52,5.42c-2.54,3.85-6.93,3.85-9.62,3.85H189V31.38Z"/><path class="cls-3" d="M235.31,4.89H221V15.52l12.8,0c2.11,0,4.81,0,6.34-2.24a5.34,5.34,0,0,0,.93-3.13,6.08,6.08,0,0,0-.81-3.13c-1.23-2.12-3.2-2.12-4.95-2.17M221,31.38h-5V.75h19c3,.05,5.68.27,8,2.55a8.86,8.86,0,0,1,2.6,6.72c0,4.8-2.45,7.72-6.82,8.73L249,31.38h-6.58l-9.19-11.76H221Z"/><path class="cls-3" d="M266.34,4.23c-5.64.17-12.1,3.25-12.1,12a12,12,0,0,0,2.38,7.5C259.16,26.9,263.11,28,267,28c10,0,12.44-6.89,12.44-11.88,0-7.76-5.72-12-13.14-11.84M249.8,16.44c0-11.31,8.63-16.4,17-16.4,9.78,0,17.2,6.31,17.2,16.45C284,27,276,32.18,267,32.18c-4,0-8.18-.81-11.52-3.38-2.78-2.1-5.72-5.93-5.72-12.36"/><path class="cls-3" d="M303,4.81H293.3V27.24h7.92c3.42,0,7.65-.13,10.53-4.13a12.79,12.79,0,0,0,2.11-7.38A11.65,11.65,0,0,0,311,7.61c-2.58-2.76-5.61-2.76-8.07-2.8m-2.66,26.57H288.82V.75h14.09c3.13,0,7,0,10.78,3.4,2.3,2.07,4.7,5.86,4.7,11.7a16.37,16.37,0,0,1-4,11.12c-4,4.31-9.59,4.41-14.14,4.41"/><polygon class="cls-3" points="349.53 31.38 323.26 31.38 323.26 0.75 349.51 0.75 349.51 5.58 328.3 5.58 328.3 13.17 349.53 13.17 349.53 17.83 328.3 17.83 328.3 26.55 349.53 26.55 349.53 31.38"/><path class="cls-3" d="M355.3,31.38V.75h4.84L378.62,22c.76.9,1.18,1.38,1.66,2,0-.68-.06-1.27-.07-2.32V.75h4.89V31.38h-4.64L361.05,9.12,360.14,8c0,.85.06,1.65.06,3.12V31.38Z"/><path class="cls-3" d="M389.77,26.39a20.28,20.28,0,0,1-1.24-1.83l4.6-2.07a8.54,8.54,0,0,0,2.06,2.05A16,16,0,0,0,405,27.31c5.88,0,8.63-2.32,8.63-5.37s-3-3.61-5.35-4c-1.15-.17-2.41-.28-3.74-.41-3.59-.33-8.81-.3-11.6-3a7.27,7.27,0,0,1-2.09-5.34c0-7.47,7.49-9.19,13.32-9.19C408,0,412,.68,415.28,3.08a11.94,11.94,0,0,1,3.27,3.71l-4.54,2A14.41,14.41,0,0,0,412.22,7a12.84,12.84,0,0,0-8-2.33A14.8,14.8,0,0,0,398,5.8,3.52,3.52,0,0,0,395.85,9a2.82,2.82,0,0,0,.68,1.87c.73.93,1.88,1.19,4.48,1.49s4.88.45,7.34.75a26.49,26.49,0,0,1,3.58.6c3.06.79,6.68,3,6.68,8.21a9.62,9.62,0,0,1-1.48,5.25c-2.29,3.51-6.75,4.94-12.42,4.94a30,30,0,0,1-7.16-.89,14.53,14.53,0,0,1-7.78-4.81"/><path class="cls-3" d="M441.74,20.1,436,7.76c-.2-.5-.42-1-.61-1.5s-.23-.74-.32-1.12c-.12.38-.22.79-.37,1.22s-.43,1-.67,1.57L428.33,20.1ZM423.8,31.38h-5.64L432.76.75h4.83l14.48,30.63h-5.75L443,24.13H427.1Z"/></g></g></svg>