<svg xmlns="http://www.w3.org/2000/svg" viewBox="0 0 36.33 36.33"><defs><style>.cls-1{fill:#009cde;}</style></defs><title>Recurso 8</title><g id="Capa_2" data-name="Capa 2"><g id="Capa_1-2" data-name="Capa 1"><path class="cls-1" d="M0,33.19V3.13A.53.53,0,0,0,0,3a3.06,3.06,0,0,1,.59-1.6A3.25,3.25,0,0,1,3.42,0H32.93a3.32,3.32,0,0,1,3.39,3.4q0,14.76,0,29.5a4.52,4.52,0,0,1,0,.52,3.25,3.25,0,0,1-2.25,2.72,7.45,7.45,0,0,1-.94.19H3.17l-.38-.06a3.29,3.29,0,0,1-2.66-2.4C.07,33.65,0,33.42,0,33.19Zm5.71-7.36.09.06c.49.27,1,.56,1.46.8a13.85,13.85,0,0,0,5.5,1.36,15.37,15.37,0,0,0,3.18-.21,13.6,13.6,0,0,0,4-1.34,13.39,13.39,0,0,0,4.11-3.29,14.58,14.58,0,0,0,2.63-4.59,14.24,14.24,0,0,0,.79-3.52c.05-.59,0-1.18.05-1.77a.28.28,0,0,1,.08-.2,9.9,9.9,0,0,0,1.87-1.79c.17-.21.33-.44.5-.66l0,0a9.12,9.12,0,0,1-2.72.72,5.37,5.37,0,0,0,1.29-1.18,4.81,4.81,0,0,0,.82-1.53l-.08,0a10.1,10.1,0,0,1-3,1.14.2.2,0,0,1-.22-.09,4.9,4.9,0,0,0-4.21-1.42,4.82,4.82,0,0,0-3.24,1.84,4.93,4.93,0,0,0-1.05,3.64c0,.2.05.39.08.62A14.32,14.32,0,0,1,7.36,9.19a5,5,0,0,0,1.55,6.66,5.26,5.26,0,0,1-2.26-.62,5,5,0,0,0,3.95,4.95,4.61,4.61,0,0,1-2.22.09,5.12,5.12,0,0,0,4.68,3.49A10.2,10.2,0,0,1,5.71,25.83Z"/></g></g></svg>