<svg xmlns="http://www.w3.org/2000/svg" viewBox="0 0 36.3 36.33"><defs><style>.cls-1{fill:#009cde;}</style></defs><title>Recurso 7</title><g id="Capa_2" data-name="Capa 2"><g id="Capa_1-2" data-name="Capa 1"><path class="cls-1" d="M36.17,2.72A3.4,3.4,0,0,0,33.27.08,1,1,0,0,1,33,0H3.24L2.73.12A3.49,3.49,0,0,0,0,3.59v29a3.49,3.49,0,0,0,2.43,3.49c.26.09.54.14.81.21H33l.64-.16a3.41,3.41,0,0,0,2.54-2.84,2.76,2.76,0,0,1,.08-.27V3.26C36.26,3.08,36.22,2.9,36.17,2.72Zm-25,28.1H5.57V14H11.2ZM10.79,10.6a2.85,2.85,0,0,1-1.72,1c-.27,0-.55.07-.82.1a3.35,3.35,0,0,1-1.94-.6A2.68,2.68,0,0,1,5.24,9.41a2.93,2.93,0,0,1,.18-1.68A2.65,2.65,0,0,1,7,6.26a3.57,3.57,0,0,1,2.81.09A2.58,2.58,0,0,1,11.27,8.2,2.79,2.79,0,0,1,10.79,10.6Zm20,20.22H25.09V21.51a6.41,6.41,0,0,0-.21-1.75,2.68,2.68,0,0,0-.64-1.21A2.07,2.07,0,0,0,23,18a3,3,0,0,0-1.42.1,2.8,2.8,0,0,0-1.49,1.22,3,3,0,0,0-.47,1.23,5.4,5.4,0,0,0,0,.56c0,3.2,0,6.4,0,9.59v.16H13.88V14h5.69l0,2.33h0l.41-.57a5,5,0,0,1,3.17-2,7.22,7.22,0,0,1,2-.08,5.88,5.88,0,0,1,2.81.94,5.52,5.52,0,0,1,2.09,2.56,8.61,8.61,0,0,1,.61,2.29,14.55,14.55,0,0,1,.1,1.75v9.65Z"/></g></g></svg>