<svg xmlns="http://www.w3.org/2000/svg" viewBox="0 0 36.3 36.33"><defs><style>.cls-1{fill:#009cde;}</style></defs><title>Recurso 10</title><g id="Capa_2" data-name="Capa 2"><g id="Capa_1-2" data-name="Capa 1"><path class="cls-1" d="M36.3,3.26v29.8a2.76,2.76,0,0,0-.08.27,3.41,3.41,0,0,1-2.54,2.84l-.64.16H3.24c-.27-.07-.55-.12-.81-.21A3.49,3.49,0,0,1,0,32.63v-29A3.49,3.49,0,0,1,2.73.12L3.24,0H33a1,1,0,0,0,.23.08,3.4,3.4,0,0,1,2.9,2.64C36.22,2.9,36.26,3.08,36.3,3.26ZM30.37,18.19V12.9a6.34,6.34,0,0,0-.1-1.06,7.58,7.58,0,0,0-7.61-6.31c-3,0-6,0-9,0a9.67,9.67,0,0,0-1.69.16,7.83,7.83,0,0,0-6.14,7.66c0,3.21,0,6.41,0,9.61a9.08,9.08,0,0,0,.07,1.17,7.67,7.67,0,0,0,7.57,6.54c3.15,0,6.29,0,9.44,0a7.55,7.55,0,0,0,1.06-.07,7.47,7.47,0,0,0,6.44-7.23C30.38,21.64,30.37,19.91,30.37,18.19Z"/><path class="cls-1" d="M28.21,18.14c0,1.72,0,3.45,0,5.17a5.43,5.43,0,0,1-4.1,5.08,5.69,5.69,0,0,1-1,.12c-3.3,0-6.6,0-9.9,0a5.36,5.36,0,0,1-5.11-4.28A6.66,6.66,0,0,1,8,22.9c0-3.17,0-6.34,0-9.51A5.6,5.6,0,0,1,9.33,9.58a4.66,4.66,0,0,1,3.53-1.73c3.52-.07,7-.06,10.57,0a5.19,5.19,0,0,1,4.69,4.24,8.83,8.83,0,0,1,.09,1.27c0,1.59,0,3.19,0,4.79ZM18.14,11.61a6.47,6.47,0,1,0,6.48,6.45A6.45,6.45,0,0,0,18.14,11.61Zm5.37-.35a1.52,1.52,0,0,0,1.55,1.54,1.55,1.55,0,0,0,1.54-1.53A1.58,1.58,0,0,0,25.06,9.7,1.55,1.55,0,0,0,23.51,11.26Z"/><path class="cls-1" d="M18.11,13.77a4.25,4.25,0,1,1,0,8.5,4.25,4.25,0,1,1,0-8.5Z"/></g></g></svg>