<svg xmlns="http://www.w3.org/2000/svg" viewBox="0 0 36.3 36.33"><defs><style>.cls-1{fill:#009cde;}.cls-2{fill:#fff;}</style></defs><title>Recurso 6</title><g id="Capa_2" data-name="Capa 2"><g id="Capa_1-2" data-name="Capa 1"><path class="cls-1" d="M36.3,3.26v29.8a2.76,2.76,0,0,0-.08.27,3.41,3.41,0,0,1-2.54,2.84l-.64.16H3.24c-.27-.07-.55-.12-.81-.21A3.49,3.49,0,0,1,0,32.63v-29A3.49,3.49,0,0,1,2.73.12L3.24,0H33a1,1,0,0,0,.23.08,3.4,3.4,0,0,1,2.9,2.64C36.22,2.9,36.26,3.08,36.3,3.26Z"/><path class="cls-2" d="M7.31,14.74a1.11,1.11,0,0,0,.5.12,1.27,1.27,0,0,0,.74-.25l8.81-6a1.2,1.2,0,0,0,.56-1.11,1.28,1.28,0,0,0-.7-1A1.22,1.22,0,0,0,16,6.56L7.17,12.61a1.23,1.23,0,0,0-.57,1.1A1.29,1.29,0,0,0,7.31,14.74Z"/><path class="cls-2" d="M18.31,12.64a1.27,1.27,0,0,0-.71-1,1.22,1.22,0,0,0-1.24.13L5.44,19.25a1.2,1.2,0,0,0-.56,1.1,1.27,1.27,0,0,0,.71,1,1.21,1.21,0,0,0,.49.11,1.3,1.3,0,0,0,.75-.25l10.91-7.51A1.21,1.21,0,0,0,18.31,12.64Z"/><path class="cls-2" d="M10.06,22.14a1.31,1.31,0,0,0,.71,1,1.24,1.24,0,0,0,.49.11A1.27,1.27,0,0,0,12,23l12.66-8.68a1.22,1.22,0,0,0,.55-.84,1.23,1.23,0,0,0-1.93-1.17L10.63,21A1.23,1.23,0,0,0,10.06,22.14Z"/><path class="cls-2" d="M32.56,13a1.2,1.2,0,0,0-1.73-.29l-22,15.09a1.2,1.2,0,0,0-.56,1.1,1.28,1.28,0,0,0,.7,1,1.25,1.25,0,0,0,.5.11,1.3,1.3,0,0,0,.74-.24l22-15.1h0A1.19,1.19,0,0,0,32.56,13Z"/></g></g></svg>