<svg xmlns="http://www.w3.org/2000/svg" viewBox="0 0 363.08 374.05"><defs><style>.cls-1{opacity:0.15;}.cls-2{fill:none;stroke:#fff;stroke-linecap:round;stroke-linejoin:round;stroke-width:8px;}</style></defs><title>Recurso 22</title><g id="Capa_2" data-name="Capa 2"><g id="Capa_1-2" data-name="Capa 1"><g class="cls-1"><path class="cls-2" d="M316.58,290.8a104.93,104.93,0,0,0-14.26-14.25c-7.28-6.16-14.49-12.4-22-18.32A64,64,0,0,0,260,247.08c-9.23-2.93-18.2-2.46-26.57,2.6a75.47,75.47,0,0,0-9.41,7.15c-5.3,4.5-10.68,8.9-15.2,14.24a33.42,33.42,0,0,1-3.43,3.3,24.81,24.81,0,0,1-20.6,6.3A46.91,46.91,0,0,1,168,274.46c-8.88-5.07-16.66-11.6-24-18.6a305.84,305.84,0,0,1-24.79-26.74c-8.22-9.86-16-20.07-22.25-31.29a77.6,77.6,0,0,1-8.29-20.07A32.21,32.21,0,0,1,88.36,162C90,155.65,94,151,99.12,147.25c4.27-3.1,8.68-6,12.55-9.64s8.31-7.16,12-11.15c6.45-7,8.89-15.42,7.91-24.85-.71-6.85-3-13.21-5.94-19.37A155.1,155.1,0,0,0,115.6,64.78C110.65,57.09,106,49.16,100.28,42c-4.28-5.34-8.91-10.29-15-13.67a20.91,20.91,0,0,0-14.4-2.6,25.66,25.66,0,0,0-11.66,5.63c-7,5.77-14,11.54-20.69,17.57a101,101,0,0,0-28.1,42.25c-6.15,17.34-7.65,35.21-5.59,53.42a157,157,0,0,0,7.51,32.72,231.66,231.66,0,0,0,20.41,43.62,380,380,0,0,0,36.65,50.94,448,448,0,0,0,36.79,39.05,290.84,290.84,0,0,0,39.17,31.14c14.56,9.51,29.94,17.32,46.65,22.34A126.1,126.1,0,0,0,220,369.62l6.07.43h4.88l6.29-.43a104.91,104.91,0,0,0,66.38-30c4-3.95,8.49-7.46,12.66-11.28s7.54-8.5,8.65-14.35c.1-.54.21-1.08.32-1.62v-3.55c-.19-1-.36-1.94-.58-2.91C323.29,300.15,320.21,295.32,316.58,290.8Z"/><path class="cls-2" d="M295.92,176.63a117,117,0,0,0-98.47-109"/><path class="cls-2" d="M197.45,4A180.1,180.1,0,0,1,359.08,176.63"/><path class="cls-2" d="M328.46,176.63a149.5,149.5,0,0,0-131-141.84"/></g></g></g></svg>